<mxfile host="Electron" modified="2023-09-19T17:27:42.041Z" agent="Mozilla/5.0 (Windows NT 10.0; Win64; x64) AppleWebKit/537.36 (KHTML, like Gecko) draw.io/21.6.8 Chrome/114.0.5735.289 Electron/25.5.0 Safari/537.36" etag="pIoo4jUlBlpIZROw3Lri" version="21.6.8" type="device">
  <diagram name="第 1 页" id="J8-wniOv0w-gdhOfFyU7">
    <mxGraphModel dx="1182" dy="683" grid="1" gridSize="10" guides="1" tooltips="1" connect="1" arrows="1" fold="1" page="1" pageScale="1" pageWidth="827" pageHeight="1169" background="none" math="0" shadow="0">
      <root>
        <mxCell id="0" />
        <mxCell id="1" parent="0" />
        <mxCell id="W3zzGVwEkPr-ZKDZrl1E-12" value="" style="rounded=0;whiteSpace=wrap;html=1;fillColor=none;strokeWidth=3;labelBackgroundColor=none;sketch=1;curveFitting=1;jiggle=2;" vertex="1" parent="1">
          <mxGeometry x="92" y="48" width="75" height="45" as="geometry" />
        </mxCell>
        <mxCell id="W3zzGVwEkPr-ZKDZrl1E-16" style="edgeStyle=orthogonalEdgeStyle;rounded=0;hachureGap=4;orthogonalLoop=1;jettySize=auto;html=1;exitX=0.5;exitY=1;exitDx=0;exitDy=0;fontFamily=Architects Daughter;fontSource=https%3A%2F%2Ffonts.googleapis.com%2Fcss%3Ffamily%3DArchitects%2BDaughter;fontSize=16;sketch=1;curveFitting=1;jiggle=2;startArrow=classic;startFill=1;endArrow=classic;endFill=1;" edge="1" parent="1" source="W3zzGVwEkPr-ZKDZrl1E-9" target="W3zzGVwEkPr-ZKDZrl1E-7">
          <mxGeometry relative="1" as="geometry" />
        </mxCell>
        <mxCell id="W3zzGVwEkPr-ZKDZrl1E-9" value="" style="rounded=0;whiteSpace=wrap;html=1;labelBackgroundColor=none;sketch=1;curveFitting=1;jiggle=2;" vertex="1" parent="1">
          <mxGeometry x="304.24" y="184" width="160" height="120" as="geometry" />
        </mxCell>
        <mxCell id="W3zzGVwEkPr-ZKDZrl1E-17" style="edgeStyle=orthogonalEdgeStyle;rounded=0;hachureGap=4;orthogonalLoop=1;jettySize=auto;html=1;exitX=0.5;exitY=1;exitDx=0;exitDy=0;entryX=0.5;entryY=0;entryDx=0;entryDy=0;fontFamily=Architects Daughter;fontSource=https%3A%2F%2Ffonts.googleapis.com%2Fcss%3Ffamily%3DArchitects%2BDaughter;fontSize=16;sketch=1;curveFitting=1;jiggle=2;startArrow=classic;startFill=1;endArrow=classic;endFill=1;" edge="1" parent="1" source="W3zzGVwEkPr-ZKDZrl1E-10" target="W3zzGVwEkPr-ZKDZrl1E-7">
          <mxGeometry relative="1" as="geometry" />
        </mxCell>
        <mxCell id="W3zzGVwEkPr-ZKDZrl1E-10" value="" style="rounded=0;whiteSpace=wrap;html=1;labelBackgroundColor=none;sketch=1;curveFitting=1;jiggle=2;" vertex="1" parent="1">
          <mxGeometry x="485.14" y="184" width="160" height="120" as="geometry" />
        </mxCell>
        <mxCell id="W3zzGVwEkPr-ZKDZrl1E-15" style="edgeStyle=orthogonalEdgeStyle;rounded=0;hachureGap=4;orthogonalLoop=1;jettySize=auto;html=1;exitX=0.5;exitY=1;exitDx=0;exitDy=0;entryX=0.5;entryY=0.077;entryDx=0;entryDy=0;entryPerimeter=0;fontFamily=Architects Daughter;fontSource=https%3A%2F%2Ffonts.googleapis.com%2Fcss%3Ffamily%3DArchitects%2BDaughter;fontSize=16;sketch=1;curveFitting=1;jiggle=2;startArrow=classic;startFill=1;endArrow=classic;endFill=1;" edge="1" parent="1" source="W3zzGVwEkPr-ZKDZrl1E-8" target="W3zzGVwEkPr-ZKDZrl1E-7">
          <mxGeometry relative="1" as="geometry" />
        </mxCell>
        <mxCell id="W3zzGVwEkPr-ZKDZrl1E-8" value="" style="rounded=0;whiteSpace=wrap;html=1;labelBackgroundColor=none;sketch=1;curveFitting=1;jiggle=2;" vertex="1" parent="1">
          <mxGeometry x="123.05" y="184" width="160" height="120" as="geometry" />
        </mxCell>
        <mxCell id="W3zzGVwEkPr-ZKDZrl1E-7" value="" style="rounded=0;whiteSpace=wrap;html=1;labelBackgroundColor=none;sketch=1;curveFitting=1;jiggle=2;" vertex="1" parent="1">
          <mxGeometry x="284.24" y="400" width="200" height="130" as="geometry" />
        </mxCell>
        <mxCell id="W3zzGVwEkPr-ZKDZrl1E-3" value="Pulsar Standlone 3.1.0" style="shape=image;verticalLabelPosition=bottom;labelBackgroundColor=none;verticalAlign=top;aspect=fixed;imageAspect=0;image=data:image/svg+xml,PHN2ZyB4bWxucz0iaHR0cDovL3d3dy53My5vcmcvMjAwMC9zdmciIHZpZXdCb3g9IjAgMCAyNCAyNCIgcm9sZT0iaW1nIj48dGl0bGU+QXBhY2hlIFB1bHNhcjwvdGl0bGU+PHBhdGggZD0iTTI0IDguOTI1aC01Ljg2NmMtMS41ODYtMy4wNDEtMy4yNjItNS40MDItNS41NDQtNS40MDItMi45NyAwLTQuMzY3IDIuNTkzLTUuNzE3IDUuMTE1bC0uMTE4LjIySDB2MS41aDMuOTM0YzEuMzkgMCAxLjY3My40NjggMS42NzMuNDY4LTEuMDkgMS42OTEtMi40IDMuMzYzLTQuNTg0IDMuMzYzSDB2MS41NzRoMS4wM2M0LjIzNCAwIDYuMDgzLTMuNDM0IDcuNTY3LTYuMTkzIDEuMzYxLTIuNTQxIDIuMzEtNC4wOCAzLjk5My00LjA4IDEuNzQ3IDAgMy41ODQgMy44MDEgNS4yMDEgNy4xNTcuMjM3LjQ4OC40NzcuOTg4LjcyIDEuNDgzLTYuMi4xOTctOS4xNTUgMS42NDktMTEuNTU5IDIuODMzLTEuNzU5Ljg2Ni0zLjE0NyAxLjk0LTUuNDMzIDEuOTRIMHYxLjU3NGgxLjUwN2MyLjc1NCAwIDQuNDctLjg1IDYuMjk1LTEuNzUxIDIuNTMtMS4yNDMgNS4zOTgtMi42NTIgMTIuMTU3LTIuNjUyaDMuOTA3VjE0LjVIMjEuNjZhMS4xOCAxLjE4IDAgMDEtLjk3Mi0uMzkzIDcwLjgzIDcwLjgzIDAgMDEtMS4xMzMtMi4zMjFsLS41MTEtMS4wNDdzLjM2Ni0uMzkzIDEuMzgtLjM5M0gyNFoiLz48L3N2Zz4=;fontFamily=Nunito;fontSource=https%3A%2F%2Ffonts.googleapis.com%2Fcss%3Ffamily%3DNunito;fontSize=15;fontStyle=1;sketch=1;curveFitting=1;jiggle=2;" vertex="1" parent="1">
          <mxGeometry x="359.1" y="430" width="50" height="50" as="geometry" />
        </mxCell>
        <mxCell id="W3zzGVwEkPr-ZKDZrl1E-4" value="JDK21" style="shape=image;verticalLabelPosition=bottom;labelBackgroundColor=none;verticalAlign=top;aspect=fixed;imageAspect=0;image=data:image/svg+xml,PHN2ZyB4bWxuczp4bGluaz0iaHR0cDovL3d3dy53My5vcmcvMTk5OS94bGluayIgeG1sbnM9Imh0dHA6Ly93d3cudzMub3JnLzIwMDAvc3ZnIiBwcmVzZXJ2ZUFzcGVjdFJhdGlvPSJ4TWlkWU1pZCIgdmVyc2lvbj0iMS4xIiB2aWV3Qm94PSIwLjUxNjg2NDc3NjYxMTMyODEgMC4zNzE0MzI3MjE2MTQ4Mzc2NSAyNTQuNzI1MzcyMzE0NDUzMTIgMzQ1LjM3OTY2OTE4OTQ1MzEiIGhlaWdodD0iMzQ1LjM3OTY2OTE4OTQ1MzEiIHdpZHRoPSIyNTQuNzI1MzcyMzE0NDUzMTIiPiYjeGE7CTxnPiYjeGE7CQk8cGF0aCBmaWxsPSIjNTM4MkExIiBkPSJNODIuNTUzOTQ5MSwyNjcuNDcyNTI0IEM4Mi41NTM5NDkxLDI2Ny40NzI1MjQgNjkuMzU1NTIsMjc1LjE0Nzg2OSA5MS45NDY4MjE4LDI3Ny43NDUxMDUgQzExOS4zMTU1NDksMjgwLjg2NzM3NSAxMzMuMzAzMzg5LDI4MC40MTk2MDcgMTYzLjQ2MzkxMywyNzQuNzExMjczIEMxNjMuNDYzOTEzLDI3NC43MTEyNzMgMTcxLjM5MzM5NiwyNzkuNjgzMjU4IDE4Mi40Njc0OTEsMjgzLjk4OTY0NCBDMTE0Ljg1NTU2NCwzMTIuOTY2OTgyIDI5LjQ0ODM3ODIsMjgyLjMxMTIxNSA4Mi41NTM5NDkxLDI2Ny40NzI1MjQiLz4mI3hhOwkJPHBhdGggZmlsbD0iIzUzODJBMSIgZD0iTTc0LjI5MjEzMDksMjI5LjY1ODk5NiBDNzQuMjkyMTMwOSwyMjkuNjU4OTk2IDU5LjQ4ODgxNDUsMjQwLjYxNjcyNyA4Mi4wOTY4NzI3LDI0Mi45NTUxNzEgQzExMS4zMzMwMDQsMjQ1Ljk3MTMxNiAxMzQuNDIxNDExLDI0Ni4yMTgwMDcgMTc0LjM3MzIzNiwyMzguNTI0OTc1IEMxNzQuMzczMjM2LDIzOC41MjQ5NzUgMTc5Ljg5OTExMywyNDQuMTI3MTg1IDE4OC41ODgyMTgsMjQ3LjE5MDgwNyBDMTA2Ljg0MTM2NywyNzEuMDk0NjkxIDE1Ljc5MDA4LDI0OS4wNzU4OTggNzQuMjkyMTMwOSwyMjkuNjU4OTk2Ii8+JiN4YTsJCTxwYXRoIGZpbGw9IiNFNzZGMDAiIGQ9Ik0xNDMuOTQxODE4LDE2NS41MTQ3MDUgQzE2MC42MDEzNjcsMTg0LjY5NTE1NiAxMzkuNTY0Njg0LDIwMS45NTUxNDIgMTM5LjU2NDY4NCwyMDEuOTU1MTQyIEMxMzkuNTY0Njg0LDIwMS45NTUxNDIgMTgxLjg2NjEyNCwxODAuMTE3ODc2IDE2Mi40Mzg5ODIsMTUyLjc3MjQyMiBDMTQ0LjI5NDYzMywxMjcuMjcxMDk4IDEzMC4zODAzMzUsMTE0LjYwMDQ5NSAyMDUuNzA2NzA1LDcwLjkxMzg2MTggQzIwNS43MDY3MDUsNzAuOTEzODYxOCA4Ny40NjkxNDkxLDEwMC40NDQxNiAxNDMuOTQxODE4LDE2NS41MTQ3MDUiLz4mI3hhOwkJPHBhdGggZmlsbD0iIzUzODJBMSIgZD0iTTIzMy4zNjQwMTUsMjk1LjQ0MTY4NyBDMjMzLjM2NDAxNSwyOTUuNDQxNjg3IDI0My4xMzExMTMsMzAzLjQ4OTM5NiAyMjIuNjA3MzYsMzA5LjcxNTMxNiBDMTgzLjU4MDg1OCwzMjEuNTM3ODYyIDYwLjE3NDg5NDUsMzI1LjEwNzg5OCAyNS44OTMyMzY0LDMxMC4xODYzNTYgQzEzLjU2OTg2MTgsMzA0LjgyNTI1MSAzNi42Nzk2OCwyOTcuMzg1NDI1IDQzLjk0OTE0OTEsMjk1LjgyNDI5MSBDNTEuNTMwNDcyNywyOTQuMTgwMzA1IDU1Ljg2MjkyMzYsMjk0LjQ4NjU3NSA1NS44NjI5MjM2LDI5NC40ODY1NzUgQzQyLjE1ODA4LDI4NC44MzIxMTYgLTMyLjcxOTU5MjcsMzEzLjQ0MzYwNyAxNy44Mjg3NzA5LDMyMS42Mzc0NjkgQzE1NS42ODE1MTMsMzQzLjk5MzI1MSAyNjkuMTIxMTY0LDMxMS41NzA2MTggMjMzLjM2NDAxNSwyOTUuNDQxNjg3Ii8+JiN4YTsJCTxwYXRoIGZpbGw9IiM1MzgyQTEiIGQ9Ik04OC45MDA4ODczLDE5MC40Nzk4MjUgQzg4LjkwMDg4NzMsMTkwLjQ3OTgyNSAyNi4xMjg3NTY0LDIwNS4zODkyNjUgNjYuNjcxNzA5MSwyMTAuODAzNDMzIEM4My43OTAxOTY0LDIxMy4wOTUzMzEgMTE3LjkxNTQ2MiwyMTIuNTc2ODE1IDE0OS43MDIyODQsMjA5LjkxMzQ4NCBDMTc1LjY4MDIzMywyMDcuNzIyMTI0IDIwMS43NjUyMzYsMjAzLjA2MjkyNCAyMDEuNzY1MjM2LDIwMy4wNjI5MjQgQzIwMS43NjUyMzYsMjAzLjA2MjkyNCAxOTIuNjA1MDkxLDIwNi45ODU3NzUgMTg1Ljk3Nzk0OSwyMTEuNTEwOTI0IEMxMjIuMjMzOTQ5LDIyOC4yNzU2NjUgLTAuOTA3NjM2MzY0LDIyMC40NzY1MDkgMzQuNTQzMjQzNiwyMDMuMzI4MjMzIEM2NC41MjQxMDE4LDE4OC44MzU4NCA4OC45MDA4ODczLDE5MC40Nzk4MjUgODguOTAwODg3MywxOTAuNDc5ODI1Ii8+JiN4YTsJCTxwYXRoIGZpbGw9IiM1MzgyQTEiIGQ9Ik0yMDEuNTA2NDQ0LDI1My40MjIzMTMgQzI2Ni4zMDUxNjQsMjE5Ljc1MDQgMjM2LjM0NDc4NSwxODcuMzkyIDIxNS40MzI4NDQsMTkxLjc1MTQ0NyBDMjEwLjMwNzI1OCwxOTIuODE4MjY5IDIwOC4wMjE4NzYsMTkzLjc0MjY2MiAyMDguMDIxODc2LDE5My43NDI2NjIgQzIwOC4wMjE4NzYsMTkzLjc0MjY2MiAyMDkuOTI0NjU1LDE5MC43NjE4OTEgMjEzLjU1ODkyNCwxODkuNDcxNjUxIEMyNTQuOTI5NDU1LDE3NC45MjcxMjcgMjg2Ljc0NjA2NSwyMzIuMzY4ODczIDIwMC4yMDQxMDIsMjU1LjExOTM2IEMyMDAuMjA0MTAyLDI1NS4xMjAyOTEgMjAxLjIwNjY5MSwyNTQuMjIzODI1IDIwMS41MDY0NDQsMjUzLjQyMjMxMyIvPiYjeGE7CQk8cGF0aCBmaWxsPSIjRTc2RjAwIiBkPSJNMTYyLjQzODk4MiwwLjM3MTQzMjcyNyBDMTYyLjQzODk4MiwwLjM3MTQzMjcyNyAxOTguMzI1NTI3LDM2LjI3MDA4IDEyOC40MDIxNTMsOTEuNDcyMDU4MiBDNzIuMzMwNzA1NSwxMzUuNzUzNTQyIDExNS42MTYxMTYsMTYxLjAwMTY1OCAxMjguMzc4ODgsMTg5Ljg0ODY2OSBDOTUuNjQ5MDQ3MywxNjAuMzE4MzcxIDcxLjYyOTczMDksMTM0LjMyMjczNSA4Ny43NDM3NjczLDExMC4xMjg0MDcgQzExMS4zOTUzNzUsNzQuNjEzMjk0NSAxNzYuOTE4MzQyLDU3LjM5NDI2OTEgMTYyLjQzODk4MiwwLjM3MTQzMjcyNyIvPiYjeGE7CQk8cGF0aCBmaWxsPSIjNTM4MkExIiBkPSJNOTUuMjY4MzA1NSwzNDQuNjY1MzY3IEMxNTcuNDY2OTk2LDM0OC42NDY4NjUgMjUyLjk4MDEzMSwzNDIuNDU2MzIgMjU1LjI0MjI0LDMxMy4wMjU2MjkgQzI1NS4yNDIyNCwzMTMuMDI1NjI5IDI1MC44OTM5NjQsMzI0LjE4MjU3NSAyMDMuODM4MzcxLDMzMy4wNDI5NjcgQzE1MC43NTA0ODcsMzQzLjAzMzQ4NCA4NS4yNzQwNjU1LDM0MS44NjcwNTUgNDYuNDM5MzMwOSwzMzUuNDY0MjYyIEM0Ni40NDAyNjE4LDMzNS40NjMzMzEgNTQuMzg5Mjk0NSwzNDIuMDQzOTI3IDk1LjI2ODMwNTUsMzQ0LjY2NTM2NyIvPiYjeGE7CTwvZz4mI3hhOzwvc3ZnPg==;fontFamily=Nunito;fontSource=https%3A%2F%2Ffonts.googleapis.com%2Fcss%3Ffamily%3DNunito;fontSize=15;fontStyle=1;sketch=1;curveFitting=1;jiggle=2;" vertex="1" parent="1">
          <mxGeometry x="180" y="199.99999999999994" width="45.82" height="62" as="geometry" />
        </mxCell>
        <mxCell id="W3zzGVwEkPr-ZKDZrl1E-5" value="2021" style="shape=image;verticalLabelPosition=bottom;labelBackgroundColor=none;verticalAlign=top;aspect=fixed;imageAspect=0;image=data:image/svg+xml,PHN2ZyB4bWxuczp4bGluaz0iaHR0cDovL3d3dy53My5vcmcvMTk5OS94bGluayIgeG1sbnM9Imh0dHA6Ly93d3cudzMub3JnLzIwMDAvc3ZnIiBwcmVzZXJ2ZUFzcGVjdFJhdGlvPSJ4TWlkWU1pZCIgdmVyc2lvbj0iMS4xIiB2aWV3Qm94PSItMS40MjEwODU0NzE1MjAyMDA0ZS0xNCAwIDI1NiAyNTYuMDA0ODgyODEyNSIgaGVpZ2h0PSIyNTYuMDA0ODgyODEyNSIgd2lkdGg9IjI1NiI+JiN4YTsgICAgPGc+JiN4YTsgICAgICAgIDxwYXRoIGZpbGw9IiMwMDAwMDAiIGQ9Ik0yNTQuMjUxMTY2LDEyNC44NjE4ODIgTDI0My41MDM3ODQsMTE4LjIwODk3MyBDMjQzLjQxMzI4NCwxMTcuMTYyMTE5IDI0My4zMTA1NTYsMTE2LjExNzcxIDI0My4xOTgwNDMsMTE1LjA3ODE5MyBMMjUyLjQzMzg0NSwxMDYuNDYzNjU1IEMyNTMuMzczMDgsMTA1LjU4ODAxNSAyNTMuNzkzNzc4LDEwNC4yOTE2NzYgMjUzLjUzOTQwMiwxMDMuMDM2OTE4IEMyNTMuMjkyMzY0LDEwMS43NzcyNjggMjUyLjQwOTM4NiwxMDAuNzQwMTk3IDI1MS4yMDg0MzgsMTAwLjI5MjU5MyBMMjM5LjQwMTk3Miw5NS44Nzc3MDM5IEMyMzkuMTA2MDE1LDk0Ljg1NTMwODQgMjM4Ljc5NTM4Myw5My44NDAyNTA3IDIzOC40Nzc0MTMsOTIuODMwMDg0OCBMMjQ1Ljg0MjA4NSw4Mi42MDEyMzgyIEMyNDYuNTkyOTgzLDgxLjU2MTcyMTMgMjQ2Ljc0NzA3Niw4MC4yMDkxMjYzIDI0Ni4yNTc4OTIsNzkuMDIyODU0MSBDMjQ1Ljc2ODcwNyw3Ny44NDE0NzM3IDI0NC42OTk4MzksNzYuOTk1MTg0NiAyNDMuNDM1Mjk4LDc2Ljc4NzI4MTIgTDIzMC45ODU1NTQsNzQuNzYyMDU3NiBDMjMwLjUwMTI2MSw3My44MTc5MzE3IDIyOS45OTc0MDEsNzIuODg4NDgxMiAyMjkuNDg4NjQ5LDcxLjk2NjM2ODYgTDIzNC43MjA0NzcsNjAuNDgyNzYzOSBDMjM1LjI1NjEzNCw1OS4zMTM2MTMxIDIzNS4xNDYwNjcsNTcuOTUzNjgwMyAyMzQuNDMxODU4LDU2Ljg5MjE1MDEgQzIzMy43MjAwOTUsNTUuODI1NzI4IDIzMi41MTQyNTUsNTUuMjAyMDE3OSAyMzEuMjI3Nyw1NS4yNTA5MzYzIEwyMTguNTkyMDY2LDU1LjY5MTIwMjMgQzIxNy45MzkwMDUsNTQuODc0MjY0MyAyMTcuMjczNzE0LDU0LjA2NDY2NDEgMjE2LjU5NjE5NCw1My4yNjk3Mzk0IEwyMTkuNDk5NTAzLDQwLjk2MTg1ODkgQzIxOS43OTMwMTQsMzkuNzExOTkyNyAyMTkuNDIzNjgsMzguNDAzNDI0MyAyMTguNTEzNzk3LDM3LjQ5NTk4NzIgQzIxNy42MTEyNTEsMzYuNTkwOTk1OSAyMTYuMzAwMjM3LDM2LjIxNjc2OTkgMjE1LjA1MDM3MSwzNi41MTAyODA1IEwyMDIuNzQ0OTM2LDM5LjQxMTE0NDIgQzIwMS45NDc1NjYsMzguNzM2MDY5NyAyMDEuMTM3OTY1LDM4LjA2ODMzMyAyMDAuMzE4NTgxLDM3LjQxNTI3MTcgTDIwMC43NjEyOTMsMjQuNzc5NjM3NyBDMjAwLjgxMDIxMiwyMy41MDA0MjA0IDIwMC4xODY1MDIsMjIuMjg0Nzk3MSAxOTkuMTIwMDc5LDIxLjU3NTQ3OTYgQzE5OC4wNTEyMTEsMjAuODYxMjcwNCAxOTYuNjk4NjE3LDIwLjc1MzY0OTggMTk1LjUzMTkxMiwyMS4yODQ0MTQ5IEwxODQuMDUwNzUzLDI2LjUxODY4ODQgQzE4My4xMjM3NDgsMjYuMDA5OTM2NiAxODIuMTk0Mjk4LDI1LjUwNjA3NjYgMTgxLjI1NTA2NCwyNS4wMTkzMzgxIEwxNzkuMjI0OTQ4LDEyLjU2NzE0ODIgQzE3OS4wMTk0OTEsMTEuMzA1MDUyNCAxNzguMTczMjAyLDEwLjIzMzczODQgMTc2Ljk4OTM3Niw5Ljc0NDU1NCBDMTc1LjgwNzk5NSw5LjI1MjkyMzY0IDE3NC40NTI5NTQsOS40MTE5MDg1OCAxNzMuNDEzNDM3LDEwLjE2MDM2MDggTDE2My4xNzcyNTMsMTcuNTI1MDMyNSBDMTYyLjE2OTUzMywxNy4yMDQ2MTY3IDE2MS4xNTY5MjEsMTYuODk2NDMwNSAxNjAuMTM0NTI2LDE2LjYwMjkxOTggTDE1NS43MTk2MzYsNC43OTQwMDc0OSBDMTU1LjI3MjAzMiwzLjU5MDYxMzc3IDE1NC4yMzQ5NjEsMi43MDc2MzU4NiAxNTIuOTc1MzExLDIuNDU4MTUxOCBDMTUxLjcxODEwNywyLjIxMTExMzY2IDE1MC40MjQyMTUsMi42MjkzNjYzNSAxNDkuNTUxMDIsMy41NjM3MDg2MyBMMTQwLjkzNjQ4MiwxMi44MDY4NDg2IEMxMzkuODk2OTY2LDEyLjY5MTg5MDIgMTM4Ljg1MDExMSwxMi41ODY3MTU2IDEzNy44MDU3MDIsMTIuNTAxMTA4MyBMMTMxLjE1Mjc5NCwxLjc1MTI4MDI5IEMxMzAuNDgwMTY1LDAuNjYyODQ0OTEzIDEyOS4yODkwMDEsMCAxMjguMDA3MzM4LDAgQzEyNi43MjU2NzUsMCAxMjUuNTM0NTEsMC42NjI4NDQ5MTMgMTI0Ljg2NDMyOCwxLjc1MTI4MDI5IEwxMTguMjExNDE5LDEyLjUwMTEwODMgQzExNy4xNjQ1NjUsMTIuNTg2NzE1NiAxMTYuMTE3NzEsMTIuNjkxODkwMiAxMTUuMDc4MTkzLDEyLjgwNjg0ODYgTDEwNi40NjEyMDksMy41NjM3MDg2MyBDMTA1LjU4ODAxNSwyLjYyOTM2NjM1IDEwNC4yOTE2NzYsMi4yMTExMTM2NiAxMDMuMDM2OTE4LDIuNDU4MTUxOCBDMTAxLjc3NzI2OCwyLjcxMDA4MTc5IDEwMC43NDAxOTcsMy41OTA2MTM3NyAxMDAuMjkyNTkzLDQuNzk0MDA3NDkgTDk1Ljg3NzcwMzksMTYuNjAyOTE5OCBDOTQuODU1MzA4NCwxNi44OTY0MzA1IDkzLjg0MjY5NjYsMTcuMjA3MDYyNiA5Mi44MzI1MzA4LDE3LjUyNTAzMjUgTDgyLjU5ODc5MjMsMTAuMTYwMzYwOCBDODEuNTU5Mjc1NCw5LjQwOTQ2MjY2IDgwLjIwNDIzNDUsOS4yNTA0Nzc3MiA3OS4wMjA0MDgyLDkuNzQ0NTU0IEM3Ny44MzkwMjc3LDEwLjIzMzczODQgNzYuOTkwMjkyNywxMS4zMDUwNTI0IDc2Ljc4NDgzNTMsMTIuNTY3MTQ4MiBMNzQuNzU0NzE5OSwyNS4wMTkzMzgxIEM3My44MTU0ODU3LDI1LjUwNjA3NjYgNzIuODg2MDM1MywyNi4wMDc0OTA2IDcxLjk1OTAzMDgsMjYuNTE4Njg4NCBMNjAuNDc3ODcyLDIxLjI4NDQxNDkgQzU5LjMxMTE2NzIsMjAuNzUxMjAzOSA1Ny45NTEyMzQ0LDIwLjg2MTI3MDQgNTYuODg5NzA0MiwyMS41NzU0Nzk2IEM1NS44MjMyODIxLDIyLjI4NDc5NzEgNTUuMTk5NTcyLDIzLjUwMDQyMDQgNTUuMjQ4NDkwNCwyNC43Nzk2Mzc3IEw1NS42ODg3NTY0LDM3LjQxNTI3MTcgQzU0Ljg3MTgxODQsMzguMDY4MzMzIDU0LjA2MjIxODEsMzguNzM2MDY5NyA1My4yNjI0MDE2LDM5LjQxMTE0NDIgTDQwLjk1Njk2NzEsMzYuNTEwMjgwNSBDMzkuNzA3MTAwOCwzNi4yMTkyMTU4IDM4LjM5NjA4NjUsMzYuNTkwOTk1OSAzNy40OTEwOTUzLDM3LjQ5NTk4NzIgQzM2LjU4MTIxMjMsMzguNDAzNDI0MyAzNi4yMTE4NzgsMzkuNzExOTkyNyAzNi41MDUzODg3LDQwLjk2MTg1ODkgTDM5LjQwMzgwNjUsNTMuMjY5NzM5NCBDMzguNzMxMTc3OSw1NC4wNjcxMSAzOC4wNjU4ODcsNTQuODc0MjY0MyAzNy40MTI4MjU4LDU1LjY5MTIwMjMgTDI0Ljc3NzE5MTgsNTUuMjUwOTM2MyBDMjMuNTAyODY2Myw1NS4yMTQyNDc1IDIyLjI4NDc5NzEsNTUuODI1NzI4IDIxLjU3MzAzMzcsNTYuODkyMTUwMSBDMjAuODU4ODI0NCw1Ny45NTM2ODAzIDIwLjc1MTIwMzksNTkuMzEzNjEzMSAyMS4yODE5NjksNjAuNDgyNzYzOSBMMjYuNTE2MjQyNSw3MS45NjYzNjg2IEMyNi4wMDc0OTA2LDcyLjg4ODQ4MTIgMjUuNTAzNjMwNyw3My44MTc5MzE3IDI1LjAxNjg5MjIsNzQuNzYyMDU3NiBMMTIuNTY3MTQ4Miw3Ni43ODcyODEyIEMxMS4zMDI2MDY0LDc2Ljk5MjczODcgMTAuMjM2MTg0NCw3Ny44MzkwMjc3IDkuNzQ0NTU0LDc5LjAyMjg1NDEgQzkuMjU1MzY5NTYsODAuMjA5MTI2MyA5LjQxNDM1NDUxLDgxLjU2MTcyMTMgMTAuMTYwMzYwOCw4Mi42MDEyMzgyIEwxNy41MjUwMzI1LDkyLjgzMDA4NDggQzE3LjIwNDYxNjcsOTMuODQwMjUwNyAxNi44OTM5ODQ2LDk0Ljg1NTMwODQgMTYuNjAwNDczOSw5NS44Nzc3MDM5IEw0Ljc5MTU2MTU3LDEwMC4yOTI1OTMgQzMuNTkzMDU5NywxMDAuNzQwMTk3IDIuNzEwMDgxNzksMTAxLjc3NzI2OCAyLjQ2MDU5NzcyLDEwMy4wMzY5MTggQzIuMjExMTEzNjYsMTA0LjI5NDEyMiAyLjYyOTM2NjM1LDEwNS41ODgwMTUgMy41NjYxNTQ1NSwxMDYuNDYzNjU1IEwxMi44MDQ0MDI3LDExNS4wNzgxOTMgQzEyLjY4OTQ0NDMsMTE2LjExNzcxIDEyLjU4NjcxNTYsMTE3LjE2NDU2NSAxMi40OTg2NjI0LDExOC4yMDg5NzMgTDEuNzUxMjgwMjksMTI0Ljg2MTg4MiBDMC42NjI4NDQ5MTMsMTI1LjUzNDUxIC0xLjQyMTA4NTQ3ZS0xNCwxMjYuNzIzMjI5IC0xLjQyMTA4NTQ3ZS0xNCwxMjguMDA3MzM4IEMtMS40MjEwODU0N2UtMTQsMTI5LjI5MTQ0NyAwLjY2Mjg0NDkxMywxMzAuNDgwMTY1IDEuNzUxMjgwMjksMTMxLjE1MDM0OCBMMTIuNDk4NjYyNCwxMzcuODAzMjU2IEMxMi41ODY3MTU2LDEzOC44NTAxMTEgMTIuNjg5NDQ0MywxMzkuODk0NTIgMTIuODA0NDAyNywxNDAuOTM0MDM3IEwzLjU2NjE1NDU1LDE0OS41NTEwMiBDMi42MjkzNjYzNSwxNTAuNDI0MjE1IDIuMjExMTEzNjYsMTUxLjcyMDU1MyAyLjQ2MDU5NzcyLDE1Mi45NzUzMTEgQzIuNzEwMDgxNzksMTU0LjIzNDk2MSAzLjU5MzA1OTcsMTU1LjI2OTU4NiA0Ljc5MTU2MTU3LDE1NS43MTk2MzYgTDE2LjYwMDQ3MzksMTYwLjEzNDUyNiBDMTYuODkzOTg0NiwxNjEuMTU2OTIxIDE3LjIwNDYxNjcsMTYyLjE3MTk3OSAxNy41MjUwMzI1LDE2My4xODIxNDUgTDEwLjE2MDM2MDgsMTczLjQxMzQzNyBDOS40MTE5MDg1OCwxNzQuNDU1NCA5LjI1MjkyMzY0LDE3NS44MDc5OTUgOS43NDQ1NTQsMTc2Ljk4OTM3NiBDMTAuMjM2MTg0NCwxNzguMTc1NjQ4IDExLjMwNTA1MjQsMTc5LjAyMTkzNyAxMi41Njk1OTQxLDE3OS4yMjQ5NDggTDI1LjAxNjg5MjIsMTgxLjI1MDE3MiBDMjUuNTAzNjMwNywxODIuMTk0Mjk4IDI2LjAwMjU5ODgsMTgzLjEyMzc0OCAyNi41MTYyNDI1LDE4NC4wNTA3NTMgTDIxLjI4MTk2OSwxOTUuNTI5NDY2IEMyMC43NDg3NTc5LDE5Ni42OTYxNzEgMjAuODU4ODI0NCwxOTguMDUzNjU3IDIxLjU3MzAzMzcsMTk5LjEyMDA3OSBDMjIuMjg3MjQzLDIwMC4xODg5NDcgMjMuNTAyODY2MywyMDAuODEyNjU4IDI0Ljc3NzE5MTgsMjAwLjc2MTI5MyBMMzcuNDA3OTM0LDIwMC4zMTg1ODEgQzM4LjA2NTg4NywyMDEuMTQwNDExIDM4LjcyODczMTksMjAxLjk0NTEyIDM5LjQwMzgwNjUsMjAyLjc0NDkzNiBMMzYuNTA1Mzg4NywyMTUuMDU1MjYzIEMzNi4yMTE4NzgsMjE2LjMwMjY4MyAzNi41ODEyMTIzLDIxNy42MDYzNTkgMzcuNDkxMDk1MywyMTguNTEzNzk3IEMzOC4zOTM2NDA2LDIxOS40MjYxMjYgMzkuNzA3MTAwOCwyMTkuNzkwNTY4IDQwLjk1Njk2NzEsMjE5LjQ5NzA1NyBMNTMuMjYyNDAxNiwyMTYuNTk4NjM5IEM1NC4wNjIyMTgxLDIxNy4yNzg2MDYgNTQuODcxODE4NCwyMTcuOTM5MDA1IDU1LjY4ODc1NjQsMjE4LjU4OTYyIEw1NS4yNDg0OTA0LDIzMS4yMjc3IEM1NS4xOTk1NzIsMjMyLjUwNjkxNyA1NS44MjMyODIxLDIzMy43MjAwOTUgNTYuODg5NzA0MiwyMzQuNDM0MzA0IEM1Ny45NTEyMzQ0LDIzNS4xNDYwNjcgNTkuMzExMTY3MiwyMzUuMjUzNjg4IDYwLjQ3Nzg3MiwyMzQuNzIwNDc3IEw3MS45NTkwMzA4LDIyOS40ODg2NDkgQzcyLjg4MzU4OTQsMjMwLjAwMjI5MyA3My44MTMwMzk4LDIzMC41MDEyNjEgNzQuNzU0NzE5OSwyMzAuOTg4IEw3Ni43ODQ4MzUzLDI0My40MzI4NTIgQzc2Ljk5MDI5MjcsMjQ0LjY5OTgzOSA3Ny44MzY1ODE4LDI0NS43NzExNTMgNzkuMDIwNDA4MiwyNDYuMjU3ODkyIEM4MC4yMDE3ODg2LDI0Ni43NDk1MjIgODEuNTU5Mjc1NCwyNDYuNTkwNTM3IDgyLjU5ODc5MjMsMjQ1Ljg0NDUzMSBMOTIuODI3NjM4OSwyMzguNDc0OTY4IEM5My44Mzc4MDQ4LDIzOC43OTUzODMgOTQuODUyODYyNSwyMzkuMTA4NDYxIDk1Ljg3NTI1OCwyMzkuNDAxOTcyIEwxMDAuMjkwMTQ4LDI1MS4yMDU5OTMgQzEwMC43Mzc3NTEsMjUyLjQwNDQ5NCAxMDEuNzc0ODIyLDI1My4yOTIzNjQgMTAzLjAzNDQ3MiwyNTMuNTM2OTU2IEMxMDQuMjkxNjc2LDI1My43OTEzMzIgMTA1LjU4NTU2OSwyNTMuMzcwNjM0IDEwNi40NTg3NjMsMjUyLjQzMTQgTDExNS4wNzU3NDcsMjQzLjE5MzE1MSBDMTE2LjExNTI2NCwyNDMuMzEzMDAyIDExNy4xNjIxMTksMjQzLjQxMzI4NCAxMTguMjA4OTczLDI0My41MDYyMjkgTDEyNC44NjE4ODIsMjU0LjI1MzYxMiBDMTI1LjUzMjA2NSwyNTUuMzM3MTU1IDEyNi43MjMyMjksMjU2LjAwNDg5MiAxMjguMDA0ODkyLDI1Ni4wMDQ4OTIgQzEyOS4yODY1NTUsMjU2LjAwNDg5MiAxMzAuNDc3NzE5LDI1NS4zMzk2MDEgMTMxLjE1MDM0OCwyNTQuMjUzNjEyIEwxMzcuODAzMjU2LDI0My41MDYyMjkgQzEzOC44NTAxMTEsMjQzLjQxMzI4NCAxMzkuODk0NTIsMjQzLjMxMzAwMiAxNDAuOTM0MDM3LDI0My4xOTMxNTEgTDE0OS41NDg1NzQsMjUyLjQzMTQgQzE1MC40MjE3NjksMjUzLjM3MDYzNCAxNTEuNzE4MTA3LDI1My43OTEzMzIgMTUyLjk3Mjg2NiwyNTMuNTM2OTU2IEMxNTQuMjMyNTE1LDI1My4yODk5MTggMTU1LjI2OTU4NiwyNTIuNDA0NDk0IDE1NS43MTcxOSwyNTEuMjA1OTkzIEwxNjAuMTMyMDgsMjM5LjQwMTk3MiBDMTYxLjE1NDQ3NSwyMzkuMTA4NDYxIDE2Mi4xNjk1MzMsMjM4Ljc5NTM4MyAxNjMuMTc5Njk5LDIzOC40NzQ5NjggTDE3My40MTA5OTEsMjQ1Ljg0NDUzMSBDMTc0LjQ1MDUwOCwyNDYuNTkwNTM3IDE3NS44MDU1NDksMjQ2Ljc0OTUyMiAxNzYuOTg2OTMsMjQ2LjI1Nzg5MiBDMTc4LjE3MDc1NiwyNDUuNzcxMTUzIDE3OS4wMTcwNDUsMjQ0LjY5NzM5NCAxNzkuMjIyNTAyLDI0My40MzI4NTIgTDE4MS4yNTI2MTgsMjMwLjk4OCBDMTgyLjE5MTg1MiwyMzAuNTAxMjYxIDE4My4xMjEzMDIsMjI5Ljk5NDk1NSAxODQuMDQ4MzA3LDIyOS40ODg2NDkgTDE5NS41Mjk0NjYsMjM0LjcyMDQ3NyBDMTk2LjY5NjE3MSwyMzUuMjUzNjg4IDE5OC4wNTM2NTcsMjM1LjE0NjA2NyAxOTkuMTE3NjM0LDIzNC40MzQzMDQgQzIwMC4xODQwNTYsMjMzLjcyMDA5NSAyMDAuODA1MzIsMjMyLjUwOTM2MyAyMDAuNzU4ODQ3LDIzMS4yMjc3IEwyMDAuMzE4NTgxLDIxOC41ODk2MiBDMjAxLjEzNTUxOSwyMTcuOTM2NTU5IDIwMS45NDUxMiwyMTcuMjc4NjA2IDIwMi43NDI0OSwyMTYuNTk4NjM5IEwyMTUuMDQ3OTI1LDIxOS40OTcwNTcgQzIxNi4yOTc3OTEsMjE5Ljc5MDU2OCAyMTcuNjA4ODA1LDIxOS40MjYxMjYgMjE4LjUxMTM1MSwyMTguNTEzNzk3IEMyMTkuNDIxMjM0LDIxNy42MDYzNTkgMjE5Ljc5MDU2OCwyMTYuMzAyNjgzIDIxOS40OTcwNTcsMjE1LjA1NTI2MyBMMjE2LjU5ODYzOSwyMDIuNzQ0OTM2IEMyMTcuMjczNzE0LDIwMS45NDUxMiAyMTcuOTM5MDA1LDIwMS4xNDA0MTEgMjE4LjU4OTYyLDIwMC4zMTg1ODEgTDIzMS4yMjUyNTQsMjAwLjc2MTI5MyBDMjMyLjQ5OTU4LDIwMC44MTI2NTggMjMzLjcxNzY0OSwyMDAuMTg4OTQ3IDIzNC40Mjk0MTIsMTk5LjEyMDA3OSBDMjM1LjE0MzYyMSwxOTguMDUzNjU3IDIzNS4yNTM2ODgsMTk2LjY5NjE3MSAyMzQuNzE4MDMxLDE5NS41Mjk0NjYgTDIyOS40ODYyMDMsMTg0LjA1MDc1MyBDMjI5Ljk5NzQwMSwxODMuMTIzNzQ4IDIzMC40OTg4MTUsMTgyLjE5NDI5OCAyMzAuOTgzMTA4LDE4MS4yNTAxNzIgTDI0My40MzI4NTIsMTc5LjIyNDk0OCBDMjQ0LjY5OTgzOSwxNzkuMDIxOTM3IDI0NS43NjYyNjIsMTc4LjE3NTY0OCAyNDYuMjU1NDQ2LDE3Ni45ODkzNzYgQzI0Ni43NDQ2MywxNzUuODA3OTk1IDI0Ni41OTA1MzcsMTc0LjQ1NTQgMjQ1LjgzOTYzOSwxNzMuNDEzNDM3IEwyMzguNDc0OTY4LDE2My4xODIxNDUgQzIzOC43OTI5MzcsMTYyLjE3MTk3OSAyMzkuMTAzNTcsMTYxLjE1NjkyMSAyMzkuMzk5NTI2LDE2MC4xMzQ1MjYgTDI1MS4yMDU5OTMsMTU1LjcxOTYzNiBDMjUyLjQwNjk0LDE1NS4yNjk1ODYgMjUzLjI5MjM2NCwxNTQuMjM0OTYxIDI1My41MzY5NTYsMTUyLjk3NTMxMSBDMjUzLjc5MTMzMiwxNTEuNzE4MTA3IDI1My4zNzA2MzQsMTUwLjQyNDIxNSAyNTIuNDMxNCwxNDkuNTUxMDIgTDI0My4xOTU1OTcsMTQwLjkzNDAzNyBDMjQzLjMwODExLDEzOS44OTQ1MiAyNDMuNDEwODM4LDEzOC44NDc2NjUgMjQzLjUwMTMzOCwxMzcuODAzMjU2IEwyNTQuMjQ4NzIsMTMxLjE1MDM0OCBDMjU1LjMzNzE1NSwxMzAuNDgwMTY1IDI1NiwxMjkuMjg5MDAxIDI1NiwxMjguMDA3MzM4IEMyNTYsMTI2LjcyNTY3NSAyNTUuMzM5NjAxLDEyNS41MzQ1MSAyNTQuMjUxMTY2LDEyNC44NjE4ODIgTDI1NC4yNTExNjYsMTI0Ljg2MTg4MiBaIE0xODIuMzE5MDQsMjE0LjAxODE5MiBDMTc4LjIxNDc4MywyMTMuMTMyNzY4IDE3NS42MDQ5ODQsMjA5LjA4NzIxMiAxNzYuNDg1NTE2LDIwNC45NzA3MjUgQzE3Ny4zNjM2MDIsMjAwLjg1OTEzIDE4MS40MDY3MTEsMTk4LjI0MTk5MyAxODUuNTA4NTIzLDE5OS4xMjc0MTcgQzE4OS42MTI3OCwyMDAuMDA1NTAzIDE5Mi4yMjc0NzEsMjA0LjA1ODM5NiAxOTEuMzQ2OTM5LDIwOC4xNjc1NDYgQzE5MC40NjY0MDcsMjEyLjI3NjY5NSAxODYuNDIwODUxLDIxNC44OTYyNzggMTgyLjMxOTA0LDIxNC4wMTgxOTIgTDE4Mi4zMTkwNCwyMTQuMDE4MTkyIFogTTE3OC42NjcyNzgsMTg5LjMxOTI2OSBDMTc0LjkyMjU3MSwxODguNTE3MDA3IDE3MS4yMzkwMTIsMTkwLjg5OTMzNSAxNzAuNDM2NzUsMTk0LjY1MTM4IEwxNjYuNjIxMTExLDIxMi40NTc2OTMgQzE1NC44NDY0NDIsMjE3LjgwMjAzMyAxNDEuNzcwNTQyLDIyMC43NzEzODMgMTI4LDIyMC43NzEzODMgQzExMy45MTM5MzQsMjIwLjc3MTM4MyAxMDAuNTU0MzA3LDIxNy42NTUyNzggODguNTY5Mjg4NCwyMTIuMDgzNDY3IEw4NC43NTYwOTU3LDE5NC4yNzcxNTQgQzgzLjk1MzgzMzIsMTkwLjUzMDAwMSA4MC4yNzAyNzQ0LDE4OC4xNDI3ODEgNzYuNTI4MDEzNSwxODguOTQ3NDg5IEw2MC44MDgwNzE1LDE5Mi4zMjI4NjIgQzU3Ljg5MDA4NjQsMTg5LjMxOTI2OSA1NS4xNzUxMTI3LDE4Ni4xMjAwMDMgNTIuNjgwMjcyMSwxODIuNzQyMTg1IEwxMjkuMTY5MTUxLDE4Mi43NDIxODUgQzEzMC4wMzUwMDcsMTgyLjc0MjE4NSAxMzAuNjEyMjQ1LDE4Mi41ODU2NDUgMTMwLjYxMjI0NSwxODEuNzk4MDU5IEwxMzAuNjEyMjQ1LDE1NC43NDEyNjcgQzEzMC42MTIyNDUsMTUzLjk1MzY4IDEzMC4wMzUwMDcsMTUzLjc5NzE0MSAxMjkuMTY5MTUxLDE1My43OTcxNDEgTDEwNi43OTg3NDYsMTUzLjc5NzE0MSBMMTA2Ljc5ODc0NiwxMzYuNjQ2MzM1IEwxMzAuOTkzODA5LDEzNi42NDYzMzUgQzEzMy4yMDI0NzYsMTM2LjY0NjMzNSAxNDIuODAyNzIxLDEzNy4yNzczODMgMTQ1Ljg3MjM1MywxNDkuNTQ4NTc0IEMxNDYuODMzNjAxLDE1My4zMjI2MzIgMTQ4Ljk0NDQzMiwxNjUuNTk4NzE2IDE1MC4zODc1MjYsMTY5LjUyOTMxMyBDMTUxLjgyNTcyOCwxNzMuOTM2ODY1IDE1Ny42ODEyNjYsMTgyLjc0MjE4NSAxNjMuOTIwODEzLDE4Mi43NDIxODUgTDIwMi4wMzU2MTksMTgyLjc0MjE4NSBDMjAyLjQ2ODU0NywxODIuNzQyMTg1IDIwMi45MzA4MjYsMTgyLjY5MzI2NiAyMDMuNDE3NTY1LDE4Mi42MDUyMTMgQzIwMC43NzM1MjMsMTg2LjE5ODI3MyAxOTcuODcyNjU5LDE4OS41OTgxMDQgMTk0Ljc0OTIxNywxOTIuNzc1MzU3IEwxNzguNjY3Mjc4LDE4OS4zMTkyNjkgTDE3OC42NjcyNzgsMTg5LjMxOTI2OSBaIE03Mi44NzYyNTE2LDIxMy42NDY0MTEgQzY4Ljc3MTk5NDIsMjE0LjUzMTgzNSA2NC43MzEzMzA3LDIxMS45MTQ2OTggNjMuODQ4MzUyOCwyMDcuODAzMTAzIEM2Mi45NzAyNjY4LDIwMy42ODQxNyA2NS41ODAwNjU3LDE5OS42NDEwNjEgNjkuNjg0MzIzMiwxOTguNzU1NjM3IEM3My43ODg1ODA2LDE5Ny44Nzc1NTEgNzcuODMxNjksMjAwLjQ5NDY4OCA3OC43MTIyMjIsMjA0LjYwNjI4MyBDNzkuNTkwMzA4LDIwOC43MTU0MzIgNzYuOTc4MDYzMSwyMTIuNzY1ODc5IDcyLjg3NjI1MTYsMjEzLjY0NjQxMSBMNzIuODc2MjUxNiwyMTMuNjQ2NDExIFogTTQzLjg2MDI3NjcsOTUuOTg1MzI0NSBDNDUuNTYyNjM4NSw5OS44Mjc4NjgyIDQzLjgzMDkyNTYsMTA0LjMzMDgxMSAzOS45OTMyNzM3LDEwNi4wMzA3MjcgQzM2LjE1NTYyMTgsMTA3LjczNTUzNSAzMS42NjQ5MDg3LDEwNi4wMDEzNzYgMjkuOTYyNTQ2OCwxMDIuMTU2Mzg2IEMyOC4yNjAxODUsOTguMzExMzk2NSAyOS45OTE4OTc5LDkzLjgxNTc5MTUgMzMuODI5NTQ5OCw5Mi4xMTA5ODM3IEMzNy42Njk2NDc2LDkwLjQwODYyMTkgNDIuMTU3OTE0OSw5Mi4xNDAzMzQ4IDQzLjg2MDI3NjcsOTUuOTg1MzI0NSBMNDMuODYwMjc2Nyw5NS45ODUzMjQ1IFogTTM0Ljk0MjQ0NDQsMTE3LjEyNTQzIEw1MS4zMTc4OTM0LDEwOS44NDg4MTEgQzU0LjgxNTU2MjIsMTA4LjI5NTY1MSA1Ni4zOTU2Mjc5LDEwNC4xOTYyODUgNTQuODQyNDY3MywxMDAuNjkxMjc5IEw1MS40Njk1NDA2LDkzLjA2NDg5MzQgTDY0LjczMzc3NjcsOTMuMDY0ODkzNCBMNjQuNzMzNzc2NywxNTIuODUzMDE1IEwzNy45NzI5NDIsMTUyLjg1MzAxNSBDMzUuNjUxNzYxOCwxNDQuNjkzNDE5IDM0LjQwNjc4NzQsMTM2LjA4MTMyNyAzNC40MDY3ODc0LDEyNy4xODA2MTYgQzM0LjQwNjc4NzQsMTIzLjc4MzIzIDM0LjU5MDIzMTYsMTIwLjQyNDk3OSAzNC45NDI0NDQ0LDExNy4xMjU0MyBMMzQuOTQyNDQ0NCwxMTcuMTI1NDMgWiBNMTA2LjgwMzYzOCwxMTEuMzE4ODExIEwxMDYuODAzNjM4LDkzLjY5NTk0MTMgTDEzOC4zOTAyNzcsOTMuNjk1OTQxMyBDMTQwLjAyMTcwOCw5My42OTU5NDEzIDE0OS45MTA1NzEsOTUuNTgxNzQ3MyAxNDkuOTEwNTcxLDEwMi45NzU3NyBDMTQ5LjkxMDU3MSwxMDkuMTE1MDM1IDE0Mi4zMjU3NjYsMTExLjMxNjM2NSAxMzYuMDg4NjY1LDExMS4zMTYzNjUgTDEwNi44MDM2MzgsMTExLjMxNjM2NSBMMTA2LjgwMzYzOCwxMTEuMzE4ODExIFogTTIyMS41OTU2NTgsMTI3LjE4MDYxNiBDMjIxLjU5NTY1OCwxMjkuNTE4OTE4IDIyMS41MTAwNTEsMTMxLjgzMjc2IDIyMS4zMzg4MzcsMTM0LjEyOTQ4MSBMMjExLjczNjE0NiwxMzQuMTI5NDgxIEMyMTAuNzc0ODk5LDEzNC4xMjk0ODEgMjEwLjM4ODQ0MywxMzQuNzYwNTI5IDIxMC4zODg0NDMsMTM1LjcwMjIwOSBMMjEwLjM4ODQ0MywxNDAuMTEyMjA3IEMyMTAuMzg4NDQzLDE1MC40OTI3IDIwNC41MzUzNTEsMTUyLjc1MDI4NyAxOTkuNDA2MjUyLDE1My4zMjUwNzggQzE5NC41MjE3NDYsMTUzLjg3NTQxMSAxODkuMTA2NDc0LDE1MS4yODAyODcgMTg4LjQzODczNywxNDguMjkxMzcgQzE4NS41NTc0NDEsMTMyLjA4NDY5IDE4MC43NTYwOTYsMTI4LjYyMzcxIDE3My4xNzM3MzcsMTIyLjY0MzQzIEMxODIuNTgzMiwxMTYuNjY4MDQyIDE5Mi4zNzQyMjYsMTA3Ljg1MjkzOSAxOTIuMzc0MjI2LDk2LjA1MzgxMDMgQzE5Mi4zNzQyMjYsODMuMzEzMDAxNiAxODMuNjM5ODM4LDc1LjI4NzkzMDkgMTc3LjY4NjQ2Myw3MS4zNTI0NDIxIEMxNjkuMzMzNjM5LDY1Ljg0NjY3MTMgMTYwLjA4NTYwNyw2NC43NDM1NjAzIDE1Ny41OTA3NjcsNjQuNzQzNTYwMyBMNTguMjc4OTg4LDY0Ljc0MzU2MDMgQzcxLjc0NjIzNTYsNDkuNzEzMzY4NSA4OS45OTc3MDY5LDM5LjA2NjI2OTIgMTEwLjY0MTI5LDM1LjE5MTkyODUgTDEyMi4zNDc0NzQsNDcuNDcyOTAzOCBDMTI0Ljk5Mzk2Miw1MC4yNDQxMzM2IDEyOS4zNzcwNTQsNTAuMzQ2ODYyMyAxMzIuMTQ1ODM4LDQ3LjY5NzkyODYgTDE0NS4yNDM3NTEsMzUuMTY5OTE1MiBDMTcyLjY4OTQ0NCw0MC4yNzk0NDY2IDE5NS45MjU3MDUsNTcuMzY0MjEzMSAyMDkuMzE3MTI5LDgwLjgwMzQ4NTQgTDIwMC4zNTAzNzgsMTAxLjA1NTcyMSBDMTk4LjgwMjExLDEwNC41NjA3MjggMjAwLjM4MjE3NSwxMDguNjYwMDkzIDIwMy44NzczOTgsMTEwLjIxMzI1NCBMMjIxLjE0MDcxNywxMTcuODgxMjIgQzIyMS40MzkxMTksMTIwLjk0NTk2IDIyMS41OTU2NTgsMTI0LjA0MjQ5OCAyMjEuNTk1NjU4LDEyNy4xODA2MTYgTDIyMS41OTU2NTgsMTI3LjE4MDYxNiBaIE0xMjIuMzUyMzY2LDI0Ljc0NTM5NDggQzEyNS4zODUzMDksMjEuODM5NjM5MiAxMzAuMTk2NDM4LDIxLjk1NDU5NzYgMTMzLjA5OTc0OCwyNC45OTI0MzI5IEMxMzUuOTk4MTY2LDI4LjAzNzYwNjEgMTM1Ljg4ODA5OSwzMi44NTM2MjY4IDEzMi44NDc4MTgsMzUuNzU2OTM2NSBDMTI5LjgxNDg3NCwzOC42NjI2OTIgMTI1LjAwMzc0NSwzOC41NTAxNzk2IDEyMi4xMDA0MzYsMzUuNTA3NDUyNCBDMTE5LjIwNDQ2NCwzMi40NjcxNzExIDExOS4zMTQ1MywyNy42NTExNTAzIDEyMi4zNTIzNjYsMjQuNzQ1Mzk0OCBMMTIyLjM1MjM2NiwyNC43NDUzOTQ4IFogTTIxMS4zMzUwMTUsOTYuMzU0NjU4NyBDMjEzLjAzNDkzMSw5Mi41MTIxMTUgMjE3LjUyNTY0NCw5MC43Nzc5NTYxIDIyMS4zNjMyOTYsOTIuNDgyNzYzOSBDMjI1LjIwMDk0OCw5NC4xODUxMjU3IDIyNi45MzI2NjEsOTguNjg1NjIyNiAyMjUuMjMwMjk5LDEwMi41MjgxNjYgQzIyMy41MzAzODMsMTA2LjM3MzE1NiAyMTkuMDM5NjcsMTA4LjEwNzMxNSAyMTUuMTk5NTcyLDEwNi40MDI1MDcgQzIxMS4zNjY4MTIsMTA0LjcwMDE0NSAyMDkuNjM1MDk5LDEwMC4yMDIwOTQgMjExLjMzNTAxNSw5Ni4zNTQ2NTg3IEwyMTEuMzM1MDE1LDk2LjM1NDY1ODcgWiIvPiYjeGE7ICAgIDwvZz4mI3hhOzwvc3ZnPg==;fontFamily=Nunito;fontSource=https%3A%2F%2Ffonts.googleapis.com%2Fcss%3Ffamily%3DNunito;fontSize=15;fontStyle=1;sketch=1;curveFitting=1;jiggle=2;" vertex="1" parent="1">
          <mxGeometry x="540" y="211.99999999999994" width="50" height="50" as="geometry" />
        </mxCell>
        <mxCell id="W3zzGVwEkPr-ZKDZrl1E-6" value="GO1.21.1" style="shape=image;verticalLabelPosition=bottom;labelBackgroundColor=none;verticalAlign=top;aspect=fixed;imageAspect=0;image=data:image/svg+xml,PHN2ZyB4bWxuczp4bGluaz0iaHR0cDovL3d3dy53My5vcmcvMTk5OS94bGluayIgeG1sbnM9Imh0dHA6Ly93d3cudzMub3JnLzIwMDAvc3ZnIiBwcmVzZXJ2ZUFzcGVjdFJhdGlvPSJ4TWlkWU1pZCIgdmVyc2lvbj0iMS4xIiB2aWV3Qm94PSIwLjQwNzc2NTQ0ODA5MzQxNDMgMC4xOTkyMjE3ODk4MzY4ODM1NCAyNTQuODg5OTk5Mzg5NjQ4NDQgMzQ3LjIxNzgzNDQ3MjY1NjI1IiBoZWlnaHQ9IjM0Ny4yMTc4MzQ0NzI2NTYyNSIgd2lkdGg9IjI1NC44ODk5OTkzODk2NDg0NCI+JiN4YTsJPGc+JiN4YTsJCTxwYXRoIGZpbGw9IiNGNkQyQTIiIGQ9Ik0zLjY4NTYwMzExLDE4OC4xNjQ5ODEgQzQuMTgzNjU3NTksMTk4LjQyNDkwMyAxNC40NDM1Nzk4LDE5My42NDM1OCAxOS4wMjU2ODA5LDE5MC40NTYwMzEgQzIzLjQwODU2MDMsMTg3LjM2ODA5MyAyNC43MDM1MDE5LDE4OS45NTc5NzcgMjUuMTAxOTQ1NSwxODMuOTgxMzIzIEMyNS40MDA3NzgyLDE3OS45OTY4ODcgMjUuNzk5MjIxOCwxNzYuMTEyMDYyIDI1LjYsMTcyLjEyNzYyNiBDMTguOTI2MDcsMTcxLjUyOTk2MSAxMS43NTQwODU2LDE3My4xMjM3MzUgNi4yNzU0ODYzOCwxNzcuMTA4MTcxIEMzLjM4Njc3MDQzLDE3OS4xMDAzODkgLTEuNzkyOTk2MTEsMTg1LjY3NDcwOCAzLjY4NTYwMzExLDE4OC4xNjQ5ODEiLz4mI3hhOwkJPHBhdGggZmlsbD0iI0Y2RDJBMiIgZD0iTTIwOC4xODY3NywzMTQuMjcyMzc0IEMyMTYuMDU2MDMxLDMxOS4xNTMzMDcgMjMwLjQ5OTYxMSwzMzMuODk1NzIgMjE4LjY0NTkxNCwzNDEuMDY3NzA0IEMyMDcuMjkwMjcyLDM1MS40MjcyMzcgMjAwLjkxNTE3NSwzMjkuNjEyNDUxIDE5MC45NTQwODYsMzI2LjYyNDEyNSBDMTk1LjIzNzM1NCwzMjAuNzQ3MDgyIDIwMC42MTYzNDIsMzE1LjM2ODA5MyAyMDguMTg2NzcsMzE0LjI3MjM3NCBMMjA4LjE4Njc3LDMxNC4yNzIzNzQgTDIwOC4xODY3NywzMTQuMjcyMzc0IFoiLz4mI3hhOwkJPHBhdGggZmlsbD0iI0Y2RDJBMiIgZD0iTTY3LjMzNjk2NSwzMzAuOTA3MzkzIEM1OC4wNzMxNTE4LDMzMi4zMDE5NDYgNTIuODkzMzg1MiwzNDAuNjY5MjYxIDQ1LjEyMzczNTQsMzQ0Ljk1MjUyOSBDMzcuODUyMTQwMSwzNDkuMjM1Nzk4IDM1LjA2MzAzNSwzNDMuNTU3OTc3IDM0LjQ2NTM2OTYsMzQyLjM2MjY0NiBDMzMuMzY5NjQ5OCwzNDEuODY0NTkxIDMzLjQ2OTI2MDcsMzQyLjg2MDcgMzEuNjc2MjY0NiwzNDEuMDY3NzA0IEMyNC45MDI3MjM3LDMzMC40MDkzMzkgMzguNjQ5MDI3MiwzMjIuNjM5Njg5IDQ1LjgyMTAxMTcsMzE3LjM2MDMxMSBDNTUuNzgyMTAxMiwzMTUuMzY4MDkzIDYyLjA1NzU4NzUsMzI0LjAzNDI0MSA2Ny4zMzY5NjUsMzMwLjkwNzM5MyBMNjcuMzM2OTY1LDMzMC45MDczOTMgTDY3LjMzNjk2NSwzMzAuOTA3MzkzIFoiLz4mI3hhOwkJPHBhdGggZmlsbD0iI0Y2RDJBMiIgZD0iTTI1MS45MTU5NTMsMTg2Ljg3MDAzOSBDMjUxLjQxNzg5OSwxOTcuMTI5OTYxIDI0MS4xNTc5NzcsMTkyLjM0ODYzOCAyMzYuNTc1ODc1LDE4OS4xNjEwODkgQzIzMi4xOTI5OTYsMTg2LjA3MzE1MiAyMzAuODk4MDU0LDE4OC42NjMwMzUgMjMwLjQ5OTYxMSwxODIuNjg2MzgxIEMyMzAuMjAwNzc4LDE3OC43MDE5NDYgMjI5LjgwMjMzNSwxNzQuODE3MTIxIDIzMC4wMDE1NTYsMTcwLjgzMjY4NSBDMjM2LjY3NTQ4NiwxNzAuMjM1MDE5IDI0My44NDc0NzEsMTcxLjgyODc5NCAyNDkuMzI2MDcsMTc1LjgxMzIzIEMyNTIuMTE1MTc1LDE3Ny44MDU0NDcgMjU3LjM5NDU1MywxODQuMzc5NzY3IDI1MS45MTU5NTMsMTg2Ljg3MDAzOSIvPiYjeGE7CQk8cGF0aCBmaWxsPSIjNjlEN0UyIiBkPSJNMjI0LjcyMjE3OSw2MS43NTg3NTQ5IEMyNjAuMjgzMjY4LDQ5LjIwNzc4MjEgMjMyLjQ5MTgyOSwwLjQ5ODA1NDQ3NSAyMDEuNTEyODQsMjIuMDE0MDA3OCBDMTgxLjE5MjIxOCw0LjU4MjEwMTE3IDE1My4yMDE1NTYsMS4zOTQ1NTI1MyAxMjMuODE2MzQyLDEuMzk0NTUyNTMgQzk1LjAyODc5MzgsMy42ODU2MDMxMSA2Ny42MzU3OTc3LDguOTY0OTgwNTQgNDguNTEwNTA1OCwyNS42OTk2MTA5IEMxNy42MzExMjg0LDUuNzc3NDMxOTEgLTEwLjg1NzU4NzUsNTMuNTkwNjYxNSAyNS40MDA3NzgyLDY1LjY0MzU3OTggQzE1LjI0MDQ2NjksMTA1LjA4OTQ5NCAyNi43OTUzMzA3LDE0NS4zMzIyOTYgMjUuMjAxNTU2NCwxODUuNDc1NDg2IEMyMy43MDczOTMsMjIxLjUzNDYzIDE0LjI0NDM1OCwyNjkuODQ1OTE0IDM0LjI2NjE0NzksMzAyLjIxOTQ1NSBDNTEuMjk5NjEwOSwzMjkuOTExMjg0IDg3Ljk1NjQyMDIsMzM5Ljc3Mjc2MyAxMTguMTM4NTIxLDM0MC44Njg0ODIgQzE1Ni42ODc5MzgsMzQyLjI2MzAzNSAyMDMuNDA1NDQ3LDMzMi44IDIyMi4xMzIyOTYsMjk1LjQ0NTkxNCBDMjQwLjA2MjI1NywyNTkuODg0ODI1IDIzNS4wODE3MTIsMjE1LjU1Nzk3NyAyMzIuNzkwNjYxLDE3Ny4yMDc3ODIgQzIzMC40OTk2MTEsMTM4LjQ1OTE0NCAyMzQuNzgyODc5LDk5LjExMjg0MDUgMjI0LjcyMjE3OSw2MS43NTg3NTQ5IEwyMjQuNzIyMTc5LDYxLjc1ODc1NDkgWiIvPiYjeGE7CQk8cGF0aCBmaWxsPSIjMDAwMDAwIiBkPSJNMjU0LjYwNTQ0NywxODAuNzkzNzc0IEMyNTMuNjA5MzM5LDE3OC43MDE5NDYgMjUxLjcxNjczMiwxNzYuMzExMjg0IDI0OS45MjM3MzUsMTc1LjAxNjM0MiBDMjQ1LjM0MTYzNCwxNzEuNzI5MTgzIDIzOS40NjQ1OTEsMTY5LjkzNjE4NyAyMzMuMzg4MzI3LDE2OS43MzY5NjUgQzIzMy4xODkxMDUsMTYzLjU2MTA4OSAyMzIuOTg5ODgzLDE1Ni43ODc1NDkgMjMyLjk4OTg4MywxNDguMjIxMDEyIEwyMzIuOTg5ODgzLDE0MC40NTEzNjIgQzIzMi44OTAyNzIsMTE1Ljk0NzA4MiAyMzIuNTkxNDQsMTA1LjE4OTEwNSAyMzEuMTk2ODg3LDkxLjc0MTYzNDIgQzIzMC4xMDExNjcsODEuMTgyODc5NCAyMjguNDA3NzgyLDcxLjQyMTAxMTcgMjI2LjAxNzEyMSw2Mi4yNTY4MDkzIEMyMzQuMDg1NjAzLDU5LjE2ODg3MTYgMjM5LjM2NDk4MSw1NC4wODg3MTYgMjQxLjQ1NjgwOSw0Ny41MTQzOTY5IEMyNDMuNDQ5MDI3LDQxLjQzODEzMjMgMjQyLjQ1MjkxOCwzNC41NjQ5ODA1IDIzOS4wNjYxNDgsMjguNDg4NzE2IEMyMzUuNTc5NzY3LDIyLjUxMjA2MjMgMjMwLjAwMTU1NiwxOC4wMjk1NzIgMjIzLjUyNjg0OCwxNi4yMzY1NzU5IEMyMTYuNTU0MDg2LDE0LjM0Mzk2ODkgMjA4Ljk4MzY1OCwxNS43Mzg1MjE0IDIwMS43MTIwNjIsMjAuNjE5NDU1MyBDMTk1LjIzNzM1NCwxNS4xNDA4NTYgMTg3Ljc2NjUzNywxMC45NTcxOTg0IDE3OS4zOTkyMjIsNy43Njk2NDk4MSBDMTY0LjU1NzE5OCwyLjI5MTA1MDU4IDE0Ny4zMjQ1MTQsMC4xOTkyMjE3OSAxMjMuOTE1OTUzLDAuMTk5MjIxNzkgTDEyMy45MTU5NTMsMS4xOTUzMzA3NCBMMTIzLjgxNjM0MiwwLjE5OTIyMTc5IEM5OC44MTQwMDc4LDIuMTkxNDM5NjkgODAuMjg2MzgxMyw2LjA3NjI2NDU5IDY0Ljk0NjMwMzUsMTMuNTQ3MDgxNyBDNTguNzcwNDI4LDE2LjUzNTQwODYgNTMuMjkxODI4OCwyMC4xMjE0MDA4IDQ4LjUxMDUwNTgsMjQuMzA1MDU4NCBDNDEuMTM5Mjk5NiwxOS43MjI5NTcyIDMzLjQ2OTI2MDcsMTguNjI3MjM3NCAyNi4zOTY4ODcyLDIwLjgxODY3NyBDMTkuODIyNTY4MSwyMi44MTA4OTQ5IDE0LjE0NDc0NzEsMjcuNDkyNjA3IDEwLjc1Nzk3NjcsMzMuNTY4ODcxNiBDNy4zNzEyMDYyMywzOS42NDUxMzYyIDYuNTc0MzE5MDcsNDYuNjE3ODk4OCA4Ljg2NTM2OTY1LDUyLjU5NDU1MjUgQzExLjE1NjQyMDIsNTguNTcxMjA2MiAxNi40MzU3OTc3LDYzLjI1MjkxODMgMjQuMzA1MDU4NCw2Ni4xNDE2MzQyIEMyMS44MTQ3ODYsNzYuMjAyMzM0NiAyMC41MTk4NDQ0LDg2Ljg2MDcwMDQgMjAuMzIwNjIyNiw5OC42MTQ3ODYgQzIwLjEyMTQwMDgsMTEwLjA3MDAzOSAyMC42MTk0NTUzLDExOS4yMzQyNDEgMjIuNDEyNDUxNCwxMzkuOTUzMzA3IEMyMy43MDczOTMsMTU1LjM5Mjk5NiAyNC4yMDU0NDc1LDE2Mi40NjUzNyAyNC40MDQ2NjkzLDE3MS4wMzE5MDcgQzE3LjYzMTEyODQsMTcwLjczMzA3NCAxMC44NTc1ODc1LDE3Mi41MjYwNyA1Ljc3NzQzMTkxLDE3Ni4yMTE2NzMgQzMuOTg0NDM1OCwxNzcuNTA2NjE1IDEuOTkyMjE3OSwxNzkuNzk3NjY1IDEuMDk1NzE5ODQsMTgxLjk4OTEwNSBDLTAuMTk5MjIxNzksMTg0Ljc3ODIxIDAuMjk4ODMyNjg1LDE4Ny4yNjg0ODIgMi44ODg3MTU5NSwxODguNzYyNjQ2IEMzLjI4NzE1OTUzLDE5My41NDM5NjkgNS45NzY2NTM3LDE5NS43MzU0MDkgMTAuMDYwNzAwNCwxOTUuMzM2OTY1IEMxMy4wNDkwMjcyLDE5NS4wMzgxMzIgMTYuNjM1MDE5NSwxOTMuNDQ0MzU4IDE5LjcyMjk1NzIsMTkxLjI1MjkxOCBDMjAuNDIwMjMzNSwxOTAuNzU0ODY0IDIxLjExNzUwOTcsMTkwLjM1NjQyIDIxLjgxNDc4NiwxOTAuMDU3NTg4IEMyMi4xMTM2MTg3LDE4OS45NTc5NzcgMjIuMzEyODQwNSwxODkuODU4MzY2IDIyLjYxMTY3MzIsMTg5Ljc1ODc1NSBDMjIuNjExNjczMiwxODkuNzU4NzU1IDIzLjIwOTMzODUsMTg5LjU1OTUzMyAyMy40MDg1NjAzLDE4OS40NTk5MjIgQzIzLjcwNzM5MywxODkuMzYwMzExIDI0LjAwNjIyNTcsMTg5LjI2MDcgMjQuMjA1NDQ3NSwxODkuMDYxNDc5IEMyNC4wMDYyMjU3LDE5My43NDMxOTEgMjMuNjA3NzgyMSwxOTguNjI0MTI1IDIyLjcxMTI4NCwyMDkuNzgwNTQ1IEMyMS43MTUxNzUxLDIyMi4zMzE1MTggMjEuMjE3MTIwNiwyMjkuMjA0NjY5IDIxLjAxNzg5ODgsMjM2Ljg3NDcwOCBDMjAuMTIxNDAwOCwyNjUuMzYzNDI0IDIzLjUwODE3MTIsMjg2LjA4MjQ5IDMzLjY2ODQ4MjUsMzAyLjUxODI4OCBDMzYuODU2MDMxMSwzMDcuNjk4MDU0IDQwLjc0MDg1NiwzMTIuMjgwMTU2IDQ1LjMyMjk1NzIsMzE2LjQ2MzgxMyBDNDQuNDI2NDU5MSwzMTcuMDYxNDc5IDQwLjY0MTI0NTEsMzE5Ljg1MDU4NCAzOS40NDU5MTQ0LDMyMC43NDcwODIgQzM1LjI2MjI1NjgsMzIzLjkzNDYzIDMyLjM3MzU0MDksMzI2LjYyNDEyNSAzMC42ODAxNTU2LDMyOS42MTI0NTEgQzI4LjQ4ODcxNiwzMzMuNDk3Mjc2IDI4LjQ4ODcxNiwzMzcuMzgyMTAxIDMwLjk3ODk4ODMsMzQxLjQ2NjE0OCBMMzEuMDc4NTk5MiwzNDEuNTY1NzU5IEwzMS4xNzgyMTAxLDM0MS42NjUzNyBDMzIuMjczOTMsMzQyLjc2MTA4OSAzMi44NzE1OTUzLDM0My4wNTk5MjIgMzMuNjY4NDgyNSwzNDMuMDU5OTIyIEwzMy43NjgwOTM0LDM0My4wNTk5MjIgTDMzLjk2NzMxNTIsMzQzLjA1OTkyMiBMMzMuOTY3MzE1MiwzNDMuMDU5OTIyIEMzNC4wNjY5MjYxLDM0My4yNTkxNDQgMzQuMTY2NTM3LDM0My4zNTg3NTUgMzQuMjY2MTQ3OSwzNDMuNTU3OTc3IEMzNC41NjQ5ODA1LDM0NC4wNTYwMzEgMzQuODYzODEzMiwzNDQuNDU0NDc1IDM1LjE2MjY0NTksMzQ0Ljg1MjkxOCBDMzcuNjUyOTE4MywzNDcuNzQxNjM0IDQxLjEzOTI5OTYsMzQ4LjQzODkxMSA0NS44MjEwMTE3LDM0NS42NDk4MDUgQzQ4LjMxMTI4NCwzNDQuMzU0ODY0IDUwLjEwNDI4MDIsMzQyLjg2MDcgNTMuODg5NDk0MiwzMzkuNjczMTUyIEM1My45ODkxMDUxLDMzOS41NzM1NDEgNTMuOTg5MTA1MSwzMzkuNTczNTQxIDU0LjA4ODcxNiwzMzkuNDczOTMgQzYwLjE2NDk4MDUsMzM0LjI5NDE2MyA2My4xNTMzMDc0LDMzMi40MDE1NTYgNjcuNjM1Nzk3NywzMzEuNzA0MjggTDY5LjIyOTU3MiwzMzEuNDA1NDQ3IEM2OS44MjcyMzc0LDMzMS43MDQyOCA3MC40MjQ5MDI3LDMzMS45MDM1MDIgNzEuMTIyMTc5LDMzMi4yMDIzMzUgQzg1LjI2NjkyNjEsMzM3Ljg4MDE1NiAxMDEuNzAyNzI0LDM0MC45NjgwOTMgMTE4LjMzNzc0MywzNDEuNTY1NzU5IEMxMzkuODUzNjk2LDM0Mi4zNjI2NDYgMTYwLjU3Mjc2MywzMzkuNjczMTUyIDE3OC4xMDQyOCwzMzMuMjk4MDU0IEMxODIuNzg1OTkyLDMzMS42MDQ2NjkgMTg3LjE2ODg3MiwzMjkuNjEyNDUxIDE5MS4zNTI1MjksMzI3LjQyMTAxMiBDMTkzLjk0MjQxMiwzMjguNDE3MTIxIDE5Ni4xMzM4NTIsMzMwLjUwODk0OSAyMDAuMzE3NTEsMzM1LjM4OTg4MyBDMjAwLjUxNjczMiwzMzUuNTg5MTA1IDIwMC41MTY3MzIsMzM1LjU4OTEwNSAyMDAuNjE2MzQyLDMzNS43ODgzMjcgQzIwMC44MTU1NjQsMzM1Ljk4NzU0OSAyMDAuODE1NTY0LDMzNi4wODcxNiAyMDAuOTE1MTc1LDMzNi4xODY3NyBDMjAxLjExNDM5NywzMzYuNDg1NjAzIDIwMS40MTMyMywzMzYuNjg0ODI1IDIwMS42MTI0NTEsMzM2Ljk4MzY1OCBDMjA0Ljg5OTYxMSwzNDAuODY4NDgyIDIwNy4wOTEwNTEsMzQyLjc2MTA4OSAyMDkuNTgxMzIzLDM0My44NTY4MDkgQzIxMi44Njg0ODIsMzQ1LjI1MTM2MiAyMTYuMDU2MDMxLDM0NC41NTQwODYgMjE5LjM0MzE5MSwzNDEuNTY1NzU5IEMyMjUuMTIwNjIzLDMzNy45Nzk3NjcgMjI1LjUxOTA2NiwzMzIuNDAxNTU2IDIyMS43MzM4NTIsMzI2LjAyNjQ1OSBDMjE5LjA0NDM1OCwzMjEuNTQzOTY5IDIxNC4zNjI2NDYsMzE2Ljg2MjI1NyAyMDkuOTc5NzY3LDMxMy44NzM5MyBDMjE1LjE1OTUzMywzMDguNzkzNzc0IDIxOS42NDIwMjMsMzAyLjcxNzUxIDIyMy4xMjg0MDUsMjk1Ljg0NDM1OCBDMjMyLjY5MTA1MSwyNzYuNzE5MDY2IDIzNi4zNzY2NTQsMjU0LjQwNjIyNiAyMzYuMTc3NDMyLDIyNS43MTgyODggQzIzNi4wNzc4MjEsMjE1LjU1Nzk3NyAyMzUuNjc5Mzc3LDIwNi42OTI2MDcgMjM0LjU4MzY1OCwxODkuNzU4NzU1IEwyMzQuNTgzNjU4LDE4OS4yNjA3IEMyMzUuMDgxNzEyLDE4OS40NTk5MjIgMjM1LjU3OTc2NywxODkuNzU4NzU1IDIzNi4wNzc4MjEsMTkwLjE1NzE5OCBDMjM5LjE2NTc1OSwxOTIuMjQ5MDI3IDI0Mi43NTE3NTEsMTkzLjk0MjQxMiAyNDUuNzQwMDc4LDE5NC4yNDEyNDUgQzI0OS44MjQxMjUsMTk0LjYzOTY4OSAyNTIuNTEzNjE5LDE5Mi40NDgyNDkgMjUyLjkxMjA2MiwxODcuNjY2OTI2IEwyNTIuOTEyMDYyLDE4Ny42NjY5MjYgQzI1NS40MDIzMzUsMTg2LjA3MzE1MiAyNTUuOTAwMzg5LDE4My41ODI4NzkgMjU0LjYwNTQ0NywxODAuNzkzNzc0IEwyNTQuNjA1NDQ3LDE4MC43OTM3NzQgWiBNMjIyLjkyOTE4MywxOC4zMjg0MDQ3IEMyMjguOTA1ODM3LDE5LjkyMjE3OSAyMzQuMDg1NjAzLDI0LjEwNTgzNjYgMjM3LjI3MzE1MiwyOS42ODQwNDY3IEMyNDAuNDYwNywzNS4yNjIyNTY4IDI0MS4zNTcxOTgsNDEuNTM3NzQzMiAyMzkuNTY0MjAyLDQ3LjExNTk1MzMgQzIzNy42NzE1OTUsNTIuOTkyOTk2MSAyMzIuODkwMjcyLDU3LjY3NDcwODIgMjI1LjQxOTQ1NSw2MC40NjM4MTMyIEMyMjMuOTI1MjkyLDU1LjA4NDgyNDkgMjIyLjEzMjI5Niw0OS44MDU0NDc1IDIyMC4xNDAwNzgsNDQuNzI1MjkxOCBDMjIzLjAyODc5NCw0Mi4yMzUwMTk1IDIyNC40MjMzNDYsMzkuMTQ3MDgxNyAyMjIuMTMyMjk2LDM0Ljc2NDIwMjMgQzIxOS44NDEyNDUsMzAuMzgxMzIzIDIxNS44NTY4MDksMjkuODgzMjY4NSAyMTEuNzcyNzYzLDMxLjE3ODIxMDEgQzIwOS4xODI4NzksMjcuNzkxNDM5NyAyMDYuMjk0MTYzLDI0LjgwMzExMjggMjAzLjMwNTgzNywyMi4wMTQwMDc4IEMyMDkuODgwMTU2LDE3LjgzMDM1MDIgMjE2LjY1MzY5NiwxNi42MzUwMTk1IDIyMi45MjkxODMsMTguMzI4NDA0NyBMMjIyLjkyOTE4MywxOC4zMjg0MDQ3IFogTTEwLjU1ODc1NDksNTEuOTk2ODg3MiBDOC40NjY5MjYwNyw0Ni42MTc4OTg4IDkuMTY0MjAyMzMsNDAuMjQyODAxNiAxMi4zNTE3NTEsMzQuNjY0NTkxNCBDMTUuNTM5Mjk5NiwyOS4wODYzODEzIDIwLjcxOTA2NjEsMjQuNzAzNTAxOSAyNi44OTQ5NDE2LDIyLjkxMDUwNTggQzMzLjI3MDAzODksMjEuMDE3ODk4OCA0MC4xNDMxOTA3LDIxLjkxNDM5NjkgNDYuOTE2NzMxNSwyNS44OTg4MzI3IEM0My4wMzE5MDY2LDI5LjM4NTIxNCAzOS41NDU1MjUzLDMzLjM2OTY0OTggMzYuNTU3MTk4NCwzNy43NTI1MjkyIEMzMS4zNzc0MzE5LDM1LjA2MzAzNSAyNi4wOTgwNTQ1LDM0LjU2NDk4MDUgMjMuMTA5NzI3Niw0MC4wNDM1Nzk4IEMyMC4wMjE3ODk5LDQ1LjkyMDYyMjYgMjMuNjA3NzgyMSw0OS42MDYyMjU3IDI4LjY4NzkzNzcsNTIuMzk1MzMwNyBDMjcuOTkwNjYxNSw1NC4wODg3MTYgMjcuMjkzMzg1Miw1NS44ODE3MTIxIDI2LjY5NTcxOTgsNTcuNjc0NzA4MiBDMjUuOTk4NDQzNiw1OS44NjYxNDc5IDI1LjMwMTE2NzMsNjIuMTU3MTk4NCAyNC43MDM1MDE5LDY0LjQ0ODI0OSBDMTcuNDMxOTA2Niw2MS42NTkxNDQgMTIuNjUwNTgzNyw1Ny4zNzU4NzU1IDEwLjU1ODc1NDksNTEuOTk2ODg3MiBMMTAuNTU4NzU0OSw1MS45OTY4ODcyIFogTTIyLjYxMTY3MzIsMTg3Ljc2NjUzNyBDMjIuNTEyMDYyMywxODcuNzY2NTM3IDIxLjkxNDM5NjksMTg3Ljk2NTc1OSAyMS45MTQzOTY5LDE4OC4wNjUzNyBDMjEuNjE1NTY0MiwxODguMTY0OTgxIDIxLjMxNjczMTUsMTg4LjI2NDU5MSAyMS4wMTc4OTg4LDE4OC40NjM4MTMgQzIwLjIyMTAxMTcsMTg4Ljc2MjY0NiAxOS40MjQxMjQ1LDE4OS4yNjA3IDE4LjYyNzIzNzQsMTg5Ljg1ODM2NiBDMTUuODM4MTMyMywxOTEuODUwNTg0IDEyLjQ1MTM2MTksMTkzLjM0NDc0NyA5Ljg2MTQ3ODYsMTkzLjU0Mzk2OSBDNi44NzMxNTE3NSwxOTMuODQyODAyIDUuMTc5NzY2NTQsMTkyLjU0Nzg2IDQuODgwOTMzODUsMTg4Ljk2MTg2OCBDNi45NzI3NjI2NSwxODguMjY0NTkxIDcuODY5MjYwNywxODcuNzY2NTM3IDguNjY2MTQ3ODYsMTg2LjU3MTIwNiBMNy4wNzIzNzM1NCwxODUuMzc1ODc1IEM2LjQ3NDcwODE3LDE4Ni4xNzI3NjMgNS44NzcwNDI4LDE4Ni40NzE1OTUgNC4wODQwNDY2OSwxODcuMDY5MjYxIEw0LjA4NDA0NjY5LDE4Ny4wNjkyNjEgQzMuOTg0NDM1OCwxODcuMDY5MjYxIDMuOTg0NDM1OCwxODcuMDY5MjYxIDMuODg0ODI0OSwxODcuMTY4ODcyIEMyLjI5MTA1MDU4LDE4Ni4yNzIzNzQgMS45OTIyMTc5LDE4NC44Nzc4MjEgMi44ODg3MTU5NSwxODIuODg1NjAzIEMzLjY4NTYwMzExLDE4MS4wOTI2MDcgNS40Nzg1OTkyMiwxNzkuMDAwNzc4IDYuOTcyNzYyNjUsMTc3LjkwNTA1OCBDMTEuNzU0MDg1NiwxNzQuNDE4Njc3IDE4LjEyOTE4MjksMTcyLjcyNTI5MiAyNC41MDQyODAyLDE3My4xMjM3MzUgQzI0LjUwNDI4MDIsMTc1LjYxNDAwOCAyNC42MDM4OTExLDE3OC4xMDQyOCAyNC41MDQyODAyLDE4MC40OTQ5NDIgQzI0LjUwNDI4MDIsMTgwLjc5Mzc3NCAyNC41MDQyODAyLDE4MC45OTI5OTYgMjQuNDA0NjY5MywxODEuMjkxODI5IEMyNC4zMDUwNTg0LDE4Mi42ODYzODEgMjQuMzA1MDU4NCwxODMuMjg0MDQ3IDI0LjIwNTQ0NzUsMTgzLjk4MTMyMyBMMjQuMjA1NDQ3NSwxODMuOTgxMzIzIEMyMy45MDY2MTQ4LDE4Ni44NzAwMzkgMjMuNzA3MzkzLDE4Ny4yNjg0ODIgMjIuNjExNjczMiwxODcuNzY2NTM3IEwyMi42MTE2NzMyLDE4Ny43NjY1MzcgWiBNNTIuNjk0MTYzNCwzMzguMDc5Mzc3IEM1Mi41OTQ1NTI1LDMzOC4xNzg5ODggNTIuNTk0NTUyNSwzMzguMTc4OTg4IDUyLjQ5NDk0MTYsMzM4LjI3ODU5OSBDNDguODA5MzM4NSwzNDEuNDY2MTQ4IDQ3LjAxNjM0MjQsMzQyLjc2MTA4OSA0NC43MjUyOTE4LDM0NC4wNTYwMzEgQzQwLjk0MDA3NzgsMzQ2LjM0NzA4MiAzOC4zNTAxOTQ2LDM0NS44NDkwMjcgMzYuNTU3MTk4NCwzNDMuNjU3NTg4IEMzNi4yNTgzNjU4LDM0My4zNTg3NTUgMzYuMDU5MTQ0LDM0Mi45NjAzMTEgMzUuODU5OTIyMiwzNDIuNjYxNDc5IEMzNS43NjAzMTEzLDM0Mi41NjE4NjggMzUuNjYwNzAwNCwzNDIuMzYyNjQ2IDM1LjU2MTA4OTUsMzQyLjI2MzAzNSBDMzUuNTYxMDg5NSwzNDIuMjYzMDM1IDM1LjU2MTA4OTUsMzQyLjI2MzAzNSAzNS41NjEwODk1LDM0Mi4xNjM0MjQgQzM1Ljc2MDMxMTMsMzQwLjM3MDQyOCAzNi40NTc1ODc1LDMzOS4wNzU0ODYgMzguMjUwNTgzNywzMzYuMjg2MzgxIEMzOC4zNTAxOTQ2LDMzNi4xODY3NyAzOC4zNTAxOTQ2LDMzNi4xODY3NyAzOC4zNTAxOTQ2LDMzNi4wODcxNiBDMzkuNDQ1OTE0NCwzMzQuNDkzMzg1IDM5Ljk0Mzk2ODksMzMzLjU5Njg4NyA0MC40NDIwMjMzLDMzMi41MDExNjcgTDM4LjY0OTAyNzIsMzMxLjcwNDI4IEMzOC4yNTA1ODM3LDMzMi42MDA3NzggMzcuNzUyNTI5MiwzMzMuMzk3NjY1IDM2Ljc1NjQyMDIsMzM0Ljk5MTQ0IEMzNi42NTY4MDkzLDMzNS4wOTEwNTEgMzYuNjU2ODA5MywzMzUuMDkxMDUxIDM2LjY1NjgwOTMsMzM1LjE5MDY2MSBDMzQuODYzODEzMiwzMzcuNzgwNTQ1IDM0LjA2NjkyNjEsMzM5LjM3NDMxOSAzMy42Njg0ODI1LDM0MS4xNjczMTUgTDMzLjU2ODg3MTYsMzQxLjE2NzMxNSBDMzMuNTY4ODcxNiwzNDEuMTY3MzE1IDMzLjU2ODg3MTYsMzQxLjE2NzMxNSAzMy40NjkyNjA3LDM0MS4xNjczMTUgTDMzLjI3MDAzODksMzQxLjE2NzMxNSBDMzMuMDcwODE3MSwzNDEuMDY3NzA0IDMyLjc3MTk4NDQsMzQwLjg2ODQ4MiAzMi4zNzM1NDA5LDM0MC40NzAwMzkgQzI4LjQ4ODcxNiwzMzQuMjk0MTYzIDMxLjU3NjY1MzcsMzI5LjAxNDc4NiA0MC4zNDI0MTI1LDMyMi40NDA0NjcgQzQxLjQzODEzMjMsMzIxLjY0MzU4IDQ1LjEyMzczNTQsMzE5LjA1MzY5NiA0Ni4xMTk4NDQ0LDMxOC4yNTY4MDkgQzQ2LjMxOTA2NjEsMzE4LjI1NjgwOSA0Ni41MTgyODc5LDMxOC4xNTcxOTggNDYuNzE3NTA5NywzMTguMDU3NTg4IEM1Mi4wOTY0OTgxLDMyMi42Mzk2ODkgNTguMzcxOTg0NCwzMjYuNjI0MTI1IDY1LjM0NDc0NzEsMzI5LjkxMTI4NCBMNjUuMzQ0NzQ3MSwzMjkuOTExMjg0IEM2NS4zNDQ3NDcxLDMzMC4wMTA4OTUgNjUuNDQ0MzU4LDMzMC4xMTA1MDYgNjUuNTQzOTY4OSwzMzAuMjEwMTE3IEM2MS40NTk5MjIyLDMzMS4yMDYyMjYgNTguMjcyMzczNSwzMzMuMjk4MDU0IDUyLjY5NDE2MzQsMzM4LjA3OTM3NyBMNTIuNjk0MTYzNCwzMzguMDc5Mzc3IFogTTIxOS45NDA4NTYsMzI3LjIyMTc5IEMyMjMuMDI4Nzk0LDMzMi40MDE1NTYgMjIyLjkyOTE4MywzMzYuNTg1MjE0IDIxOS4wNDQzNTgsMzM5LjQ3MzkzIEMyMTguNzQ1NTI1LDMzOC44NzYyNjUgMjE4LjU0NjMwNCwzMzguMTc4OTg4IDIxOC4xNDc4NiwzMzcuMTgyODc5IEMyMTguMTQ3ODYsMzM3LjA4MzI2OCAyMTguMTQ3ODYsMzM3LjA4MzI2OCAyMTguMDQ4MjQ5LDMzNi45ODM2NTggQzIxNi42NTM2OTYsMzMzLjE5ODQ0NCAyMTUuNzU3MTk4LDMzMS42MDQ2NjkgMjE0LjA2MzgxMywzMjkuODExNjczIEwyMTIuNjY5MjYxLDMzMS4yMDYyMjYgQzIxNC4xNjM0MjQsMzMyLjYwMDc3OCAyMTQuODYwNywzMzQuMDk0OTQyIDIxNi4yNTUyNTMsMzM3LjU4MTMyMyBDMjE2LjI1NTI1MywzMzcuNjgwOTM0IDIxNi4yNTUyNTMsMzM3LjY4MDkzNCAyMTYuMzU0ODY0LDMzNy43ODA1NDUgQzIxNi44NTI5MTgsMzM5LjA3NTQ4NiAyMTcuMTUxNzUxLDMzOS44NzIzNzQgMjE3LjQ1MDU4NCwzNDAuNTY5NjUgQzIxNC44NjA3LDM0Mi43NjEwODkgMjEyLjU2OTY1LDM0My4xNTk1MzMgMjEwLjE3ODk4OCwzNDIuMDYzODEzIEMyMDguMDg3MTYsMzQxLjE2NzMxNSAyMDYuMDk0OTQyLDMzOS4yNzQ3MDggMjAyLjkwNzM5MywzMzUuNjg4NzE2IEMyMDIuNzA4MTcxLDMzNS40ODk0OTQgMjAyLjUwODk0OSwzMzUuMTkwNjYxIDIwMi4zMDk3MjgsMzM0Ljg5MTgyOSBDMjAyLjIxMDExNywzMzQuNzkyMjE4IDIwMi4xMTA1MDYsMzM0LjY5MjYwNyAyMDIuMDEwODk1LDMzNC40OTMzODUgQzIwMS44MTE2NzMsMzM0LjI5NDE2MyAyMDEuODExNjczLDMzNC4yOTQxNjMgMjAxLjcxMjA2MiwzMzQuMDk0OTQyIEMxOTguMDI2NDU5LDMyOS44MTE2NzMgMTk1LjgzNTAxOSwzMjcuNTIwNjIzIDE5My40NDQzNTgsMzI2LjIyNTY4MSBDMTk5LjAyMjU2OCwzMjMuMDM4MTMyIDIwNC4wMDMxMTMsMzE5LjQ1MjE0IDIwOC40ODU2MDMsMzE1LjI2ODQ4MiBDMjEyLjY2OTI2MSwzMTguMzU2NDIgMjE3LjM1MDk3MywzMjIuOTM4NTIxIDIxOS45NDA4NTYsMzI3LjIyMTc5IEwyMTkuOTQwODU2LDMyNy4yMjE3OSBaIE0yMjEuMzM1NDA5LDI5NC45NDc4NiBDMjEyLjc2ODg3MiwzMTIuMTgwNTQ1IDE5Ny42MjgwMTYsMzI0LjMzMzA3NCAxNzcuMzA3MzkzLDMzMS43MDQyOCBDMTU5Ljk3NTA5NywzMzcuOTc5NzY3IDEzOS40NTUyNTMsMzQwLjU2OTY1IDExOC4yMzgxMzIsMzM5Ljc3Mjc2MyBDODEuNjgwOTMzOSwzMzguNDc3ODIxIDUwLjAwNDY2OTMsMzI1LjcyNzYyNiAzNS4xNjI2NDU5LDMwMS42MjE3OSBDMjUuMjAxNTU2NCwyODUuNTg0NDM2IDIxLjkxNDM5NjksMjY1LjE2NDIwMiAyMi44MTA4OTQ5LDIzNy4wNzM5MyBDMjMuMTA5NzI3NiwyMjkuNDAzODkxIDIzLjUwODE3MTIsMjIyLjUzMDczOSAyNC41MDQyODAyLDIwOS45Nzk3NjcgQzI1LjYsMTk1LjgzNTAxOSAyNS44OTg4MzI3LDE5MS43NTA5NzMgMjYuMTk3NjY1NCwxODUuMzc1ODc1IEMyNi4zOTY4ODcyLDE4MC43OTM3NzQgMjYuMzk2ODg3MiwxNzYuMTEyMDYyIDI2LjI5NzI3NjMsMTcxLjEzMTUxOCBDMjYuMDk4MDU0NSwxNjIuMzY1NzU5IDI1LjYsMTU1LjM5Mjk5NiAyNC4zMDUwNTg0LDEzOS43NTQwODYgQzIyLjUxMjA2MjMsMTE5LjAzNTAxOSAyMi4wMTQwMDc4LDEwOS45NzA0MjggMjIuMjEzMjI5Niw5OC42MTQ3ODYgQzIyLjUxMjA2MjMsODMuNjczMTUxOCAyNC41MDQyODAyLDcwLjUyNDUxMzYgMjguNjg3OTM3Nyw1OC4wNzMxNTE4IEMzNS40NjE0Nzg2LDM3Ljg1MjE0MDEgNDcuOTEyODQwNSwyNC4yMDU0NDc1IDY1Ljg0MjgwMTYsMTUuMzQwMDc3OCBDODAuODg0MDQ2Nyw3Ljk2ODg3MTYgOTkuMTEyODQwNSw0LjE4MzY1NzU5IDEyMy45MTU5NTMsMi4xOTE0Mzk2OSBDMTQ3LjEyNTI5MiwyLjE5MTQzOTY5IDE2NC4wNTkxNDQsNC4yODMyNjg0OCAxNzguNzAxOTQ2LDkuNjYyMjU2ODEgQzE5Ni4yMzM0NjMsMTYuMTM2OTY1IDIwOS4yODI0OSwyNy40OTI2MDcgMjE4LjI0NzQ3MSw0NC45MjQ1MTM2IEMyMjQuMDI0OTAzLDU5LjA2OTI2MDcgMjI3LjQxMTY3Myw3NC4zMDk3Mjc2IDIyOS4yMDQ2NjksOTEuODQxMjQ1MSBDMjMwLjU5OTIyMiwxMDUuMTg5MTA1IDIzMC44OTgwNTQsMTE1Ljk0NzA4MiAyMzAuOTk3NjY1LDE0MC4zNTE3NTEgTDIzMC45OTc2NjUsMTQ4LjEyMTQwMSBDMjMxLjA5NzI3NiwxNjAuMTc0MzE5IDIzMS4yOTY0OTgsMTY4LjY0MTI0NSAyMzEuNzk0NTUzLDE3Ny4xMDgxNzEgQzIzMS45OTM3NzQsMTgwLjM5NTMzMSAyMzIuMDkzMzg1LDE4MS43ODk4ODMgMjMyLjU5MTQ0LDE4OS42NTkxNDQgQzIzMy42ODcxNiwyMDYuNTkyOTk2IDIzNC4wODU2MDMsMjE1LjM1ODc1NSAyMzQuMTg1MjE0LDIyNS41MTkwNjYgQzIzNC4zODQ0MzYsMjU0LjEwNzM5MyAyMzAuNzk4NDQ0LDI3Ni4xMjE0MDEgMjIxLjMzNTQwOSwyOTQuOTQ3ODYgTDIyMS4zMzU0MDksMjk0Ljk0Nzg2IFogTTI1MS44MTYzNDIsMTg1Ljg3MzkzIEwyNTEuODE2MzQyLDE4NS44NzM5MyBDMjUxLjcxNjczMiwxODUuODczOTMgMjUxLjYxNzEyMSwxODUuNzc0MzE5IDI1MS41MTc1MSwxODUuNzc0MzE5IEMyNDkuNzI0NTE0LDE4NS4xNzY2NTQgMjQ5LjEyNjg0OCwxODQuNzc4MjEgMjQ4LjUyOTE4MywxODQuMDgwOTM0IEwyNDYuOTM1NDA5LDE4NS4yNzYyNjUgQzI0Ny44MzE5MDcsMTg2LjQ3MTU5NSAyNDguNzI4NDA1LDE4Ni45Njk2NSAyNTAuNzIwNjIzLDE4Ny42NjY5MjYgQzI1MC4zMjIxNzksMTkxLjI1MjkxOCAyNDguNjI4Nzk0LDE5Mi41NDc4NiAyNDUuNzQwMDc4LDE5Mi4yNDkwMjcgQzI0My4xNTAxOTUsMTkyLjA0OTgwNSAyMzkuNzYzNDI0LDE5MC40NTYwMzEgMjM2Ljk3NDMxOSwxODguNTYzNDI0IEMyMzYuMTc3NDMyLDE4Ny45NjU3NTkgMjM1LjM4MDU0NSwxODcuNTY3MzE1IDIzNC41ODM2NTgsMTg3LjE2ODg3MiBDMjM0LjQ4NDA0NywxODcuMTY4ODcyIDIzNC4zODQ0MzYsMTg3LjA2OTI2MSAyMzQuMjg0ODI1LDE4Ny4wNjkyNjEgQzIzMy44ODYzODEsMTgxLjU5MDY2MSAyMzMuODg2MzgxLDE4MC4xOTYxMDkgMjMzLjY4NzE2LDE3Ny4zMDczOTMgQzIzMy41ODc1NDksMTc1LjUxNDM5NyAyMzMuNDg3OTM4LDE3My43MjE0MDEgMjMzLjM4ODMyNywxNzEuOTI4NDA1IEMyMzguOTY2NTM3LDE3Mi4wMjgwMTYgMjQ0LjQ0NTEzNiwxNzMuNzIxNDAxIDI0OC42Mjg3OTQsMTc2LjgwOTMzOSBDMjUwLjEyMjk1NywxNzcuOTA1MDU4IDI1MS45MTU5NTMsMTc5Ljk5Njg4NyAyNTIuNzEyODQsMTgxLjc4OTg4MyBDMjUzLjcwODk0OSwxODMuNDgzMjY4IDI1My41MDk3MjgsMTg0Ljk3NzQzMiAyNTEuODE2MzQyLDE4NS44NzM5MyBMMjUxLjgxNjM0MiwxODUuODczOTMgWiIvPiYjeGE7CQk8ZyB0cmFuc2Zvcm09InRyYW5zbGF0ZSgxMDguOTM0OTA1LCA5Ni45NTEwMTUpIj4mI3hhOwkJCTxwYXRoIGZpbGw9IiNGRkZGRkYiIGQ9Ik0yOS45ODI4Nzk0LDcuMTcxOTg0NDQgQzMwLjA4MjQ5MDMsMTIuMjUyMTQwMSAzMS4wNzg1OTkyLDE3LjgzMDM1MDIgMzAuMTgyMTAxMiwyMy4yMDkzMzg1IEMyOC43ODc1NDg2LDI1Ljc5OTIyMTggMjYuMTk3NjY1NCwyNi4wOTgwNTQ1IDIzLjkwNjYxNDgsMjcuMDk0MTYzNCBDMjAuNzE5MDY2MSwyNi41OTYxMDg5IDE4LjAyOTU3MiwyNC41MDQyODAyIDE2LjczNDYzMDQsMjEuNTE1OTUzMyBDMTUuOTM3NzQzMiwxNS40Mzk2ODg3IDE2LjkzMzg1MjEsOS42NjIyNTY4MSAxNy4yMzI2ODQ4LDMuNTg1OTkyMjIgQzE3LjIzMjY4NDgsMy4zODY3NzA0MyAyMS4wMTc4OTg4LDMuNjg1NjAzMTEgMjQuNDA0NjY5Myw0LjY4MTcxMjA2IEMyNy4yOTMzODUyLDUuNTc4MjEwMTIgMjkuOTgyODc5NCw3LjA3MjM3MzU0IDI5Ljk4Mjg3OTQsNy4xNzE5ODQ0NCBMMjkuOTgyODc5NCw3LjE3MTk4NDQ0IFoiLz4mI3hhOwkJCTxwYXRoIGZpbGw9IiNGRkZGRkYiIGQ9Ik0xLjc5Mjk5NjExLDcuNTcwNDI4MDIgQy0wLjk5NjEwODk0OSwxOC4xMjkxODI5IDUuNDc4NTk5MjIsMzUuMzYxODY3NyAxNi4xMzY5NjUsMjEuMjE3MTIwNiBDMTUuMzQwMDc3OCwxNS4yNDA0NjY5IDE2LjIzNjU3NTksOS40NjMwMzUwMiAxNi41MzU0MDg2LDMuNTg1OTkyMjIgQzE2LjYzNTAxOTUsMy4wODc5Mzc3NCAxLjg5MjYwNyw2Ljg3MzE1MTc1IDEuNzkyOTk2MTEsNy41NzA0MjgwMiBMMS43OTI5OTYxMSw3LjU3MDQyODAyIFoiLz4mI3hhOwkJCTxwYXRoIGZpbGw9IiMwMDAwMDAiIGQ9Ik0zMS4xNzgyMTAxLDExLjg1MzY5NjUgQzMwLjk3ODk4ODMsOC44NjUzNjk2NSAzMC44NzkzNzc0LDcuNjcwMDM4OTEgMzAuODc5Mzc3NCw2LjE3NTg3NTQ5IEwzMC44NzkzNzc0LDUuNDc4NTk5MjIgTDMwLjE4MjEwMTIsNS4yNzkzNzc0MyBMMTcuNjMxMTI4NCwxLjM5NDU1MjUzIEwxNy42MzExMjg0LDAuNjk3Mjc2MjY1IEwxNi4zMzYxODY4LDAuOTk2MTA4OTQ5IEwxNi4yMzY1NzU5LDAuOTk2MTA4OTQ5IEwxNi4yMzY1NzU5LDEuMDk1NzE5ODQgTDIuMDkxODI4NzksNC42ODE3MTIwNiBMMS41OTM3NzQzMiw0Ljc4MTMyMjk2IEwxLjM5NDU1MjUzLDUuMjc5Mzc3NDMgQy0wLjc5Njg4NzE2LDEwLjU1ODc1NDkgLTAuMjk4ODMyNjg1LDE4LjUyNzYyNjUgMi40OTAyNzIzNywyMy40MDg1NjAzIEM1LjY3NzgyMTAxLDI4Ljk4Njc3MDQgMTAuODU3NTg3NSwyOS4wODYzODEzIDE2LjEzNjk2NSwyMi43MTEyODQgQzE3LjYzMTEyODQsMjUuNiAyMC40MjAyMzM1LDI3LjU5MjIxNzkgMjMuNjA3NzgyMSwyOC4wOTAyNzI0IEwyMy45MDY2MTQ4LDI4LjA5MDI3MjQgTDI0LjIwNTQ0NzUsMjcuOTkwNjYxNSBDMjQuNjAzODkxMSwyNy43OTE0Mzk3IDI1LjAwMjMzNDYsMjcuNjkxODI4OCAyNS42OTk2MTA5LDI3LjM5Mjk5NjEgQzI1Ljc5OTIyMTgsMjcuMzkyOTk2MSAyNS43OTkyMjE4LDI3LjM5Mjk5NjEgMjUuODk4ODMyNywyNy4yOTMzODUyIEMyOC43ODc1NDg2LDI2LjI5NzI3NjMgMjkuOTgyODc5NCwyNS41MDAzODkxIDMwLjk3ODk4ODMsMjMuNjA3NzgyMSBMMzEuMDc4NTk5MiwyMy41MDgxNzEyIEwzMS4wNzg1OTkyLDIzLjMwODk0OTQgQzMxLjM3NzQzMTksMjEuNTE1OTUzMyAzMS40NzcwNDI4LDE5LjYyMzM0NjMgMzEuNDc3MDQyOCwxNy41MzE1MTc1IEMzMS40NzcwNDI4LDE2LjAzNzM1NDEgMzEuMzc3NDMxOSwxNC42NDI4MDE2IDMxLjE3ODIxMDEsMTEuODUzNjk2NSBMMzEuMTc4MjEwMSwxMS44NTM2OTY1IFogTTE1LjI0MDQ2NjksOC4xNjgwOTMzOSBDMTUuMTQwODU2LDkuOTYxMDg5NDkgMTUuMDQxMjQ1MSwxMC42NTgzNjU4IDE0Ljk0MTYzNDIsMTEuNjU0NDc0NyBDMTQuNzQyNDEyNSwxNS4zNDAwNzc4IDE0Ljc0MjQxMjUsMTguMTI5MTgyOSAxNS4wNDEyNDUxLDIwLjkxODI4NzkgQzEwLjM1OTUzMzEsMjYuODk0OTQxNiA2LjY3MzkyOTk2LDI2Ljg5NDk0MTYgNC4xODM2NTc1OSwyMi40MTI0NTE0IEMxLjc5Mjk5NjExLDE4LjIyODc5MzggMS4yOTQ5NDE2MywxMS4xNTY0MjAyIDMuMDg3OTM3NzQsNi40NzQ3MDgxNyBMMTUuNjM4OTEwNSwzLjI4NzE1OTUzIEMxNS41MzkyOTk2LDQuNTgyMTAxMTcgMTUuNDM5Njg4Nyw1Ljg3NzA0MjggMTUuMjQwNDY2OSw4LjE2ODA5MzM5IEwxNS4yNDA0NjY5LDguMTY4MDkzMzkgWiBNMjkuMTg1OTkyMiwyMi45MTA1MDU4IEMyOC40ODg3MTYsMjQuMTA1ODM2NiAyNy41OTIyMTc5LDI0LjcwMzUwMTkgMjUuMjAxNTU2NCwyNS41MDAzODkxIEMyNS4xMDE5NDU1LDI1LjUwMDM4OTEgMjUuMTAxOTQ1NSwyNS41MDAzODkxIDI1LjAwMjMzNDYsMjUuNiBDMjQuNDA0NjY5MywyNS43OTkyMjE4IDI0LjAwNjIyNTcsMjUuOTk4NDQzNiAyMy43MDczOTMsMjYuMDk4MDU0NSBDMjEuMDE3ODk4OCwyNS42IDE4LjcyNjg0ODIsMjMuODA3MDAzOSAxNy42MzExMjg0LDIxLjMxNjczMTUgQzE3LjMzMjI5NTcsMTguNjI3MjM3NCAxNy4zMzIyOTU3LDE1LjgzODEzMjMgMTcuNTMxNTE3NSwxMi4xNTI1MjkyIEMxNy42MzExMjg0LDExLjE1NjQyMDIgMTcuNjMxMTI4NCwxMC40NTkxNDQgMTcuODMwMzUwMiw4LjY2NjE0Nzg2IEMxOC4wMjk1NzIsNi4zNzUwOTcyOCAxOC4xMjkxODI5LDQuOTgwNTQ0NzUgMTguMTI5MTgyOSwzLjY4NTYwMzExIEwyOC45ODY3NzA0LDYuOTcyNzYyNjUgQzI4Ljk4Njc3MDQsOC4yNjc3MDQyOCAyOS4wODYzODEzLDkuNDYzMDM1MDIgMjkuMjg1NjAzMSwxMi4wNTI5MTgzIEMyOS40ODQ4MjQ5LDE0Ljc0MjQxMjUgMjkuNTg0NDM1OCwxNi4xMzY5NjUgMjkuNTg0NDM1OCwxNy43MzA3MzkzIEMyOS41ODQ0MzU4LDE5LjYyMzM0NjMgMjkuNDg0ODI0OSwyMS4zMTY3MzE1IDI5LjE4NTk5MjIsMjIuOTEwNTA1OCBMMjkuMTg1OTkyMiwyMi45MTA1MDU4IFoiLz4mI3hhOwkJPC9nPiYjeGE7CQk8ZyB0cmFuc2Zvcm09InRyYW5zbGF0ZSg0OC40NzU1MDgsIDIxLjk3NTU2NCkiPiYjeGE7CQkJPHBhdGggZmlsbD0iI0ZGRkZGRiIgZD0iTTIuMjkxMDUwNTgsMzguNzQ4NjM4MSBDMTEuNDU1MjUyOSw3NC40MDkzMzg1IDY4LjUzMjI5NTcsNjUuMjQ1MTM2MiA2Ni4zNDA4NTYsMjkuNDg0ODI0OSBDNjMuNzUwOTcyOCwtMTMuMzQ3ODU5OSAtNi40NzQ3MDgxNywtNS4wODAxNTU2NCAyLjI5MTA1MDU4LDM4Ljc0ODYzODEiLz4mI3hhOwkJCTxwYXRoIGZpbGw9IiMwMDAwMDAiIGQ9Ik02Ny4zMzY5NjUsMjkuMzg1MjE0IEM2Ni43MzkyOTk2LDE5LjAyNTY4MDkgNjIuMTU3MTk4NCwxMC45NTcxOTg0IDU0LjU4Njc3MDQsNS44NzcwNDI4IEM0Ny44MTMyMjk2LDEuMjk0OTQxNjMgMzguODQ4MjQ5LC0wLjQ5ODA1NDQ3NSAyOS45ODI4Nzk0LDAuNTk3NjY1MzcgQzIxLjExNzUwOTcsMS43OTI5OTYxMSAxMi45NDk0MTYzLDUuNzc3NDMxOTEgNy41NzA0MjgwMiwxMi4wNTI5MTgzIEMxLjU5Mzc3NDMyLDE5LjAyNTY4MDkgLTAuNjk3Mjc2MjY1LDI4LjE4OTg4MzMgMS4zOTQ1NTI1MywzOC43NDg2MzgxIEwyLjI5MTA1MDU4LDM4LjU0OTQxNjMgTDEuMzk0NTUyNTMsMzguNzQ4NjM4MSBDMTAuNzU3OTc2Nyw3NS40MDU0NDc1IDY5LjUyODQwNDcsNjYuNTQwMDc3OCA2Ny4zMzY5NjUsMjkuMzg1MjE0IEw2Ny4zMzY5NjUsMjkuMzg1MjE0IFogTTMuMTg3NTQ4NjQsMzguNTQ5NDE2MyBDMS4xOTUzMzA3NCwyOC40ODg3MTYgMy4zODY3NzA0MywxOS45MjIxNzkgOC45NjQ5ODA1NCwxMy40NDc0NzA4IEMxNC4wNDUxMzYyLDcuNTcwNDI4MDIgMjEuNzE1MTc1MSwzLjY4NTYwMzExIDMwLjE4MjEwMTIsMi41ODk4ODMyNyBDMzguNjQ5MDI3MiwxLjQ5NDE2MzQyIDQ3LjExNTk1MzMsMy4xODc1NDg2NCA1My40OTEwNTA2LDcuNTcwNDI4MDIgQzYwLjU2MzQyNDEsMTIuMzUxNzUxIDY0Ljg0NjY5MjYsMTkuODIyNTY4MSA2NS40NDQzNTgsMjkuNjg0MDQ2NyBDNjcuNTM2MTg2OCw2NC40NDgyNDkgMTIuMDUyOTE4Myw3Mi44MTU1NjQyIDMuMTg3NTQ4NjQsMzguNTQ5NDE2MyBMMy4xODc1NDg2NCwzOC41NDk0MTYzIFoiLz4mI3hhOwkJCTxlbGxpcHNlIHJ5PSIxMC40NTkxNDQiIHJ4PSI5LjY2MjI1NjgxIiBjeT0iMzIuODcxNTk1MyIgY3g9IjE4LjAyOTU3MiIgZmlsbD0iIzAwMDAwMCIvPiYjeGE7CQkJPGVsbGlwc2Ugcnk9IjIuNjg5NDk0MTYiIHJ4PSIyLjI5MTA1MDU4IiBjeT0iMzUuMjYyMjU2OCIgY3g9IjIyLjQxMjQ1MTQiIGZpbGw9IiNGRkZGRkYiLz4mI3hhOwkJPC9nPiYjeGE7CQk8ZyB0cmFuc2Zvcm09InRyYW5zbGF0ZSgxMjkuNjE3Nzg5LCAxOC4wOTc1MjMpIj4mI3hhOwkJCTxwYXRoIGZpbGw9IiNGRkZGRkYiIGQ9Ik0xLjE5NTMzMDc0LDM1Ljk1OTUzMzEgQzguMjY3NzA0MjgsNzYuODk5NjEwOSA3NS4yMDYyMjU3LDY2LjA0MjAyMzMgNjUuNTQzOTY4OSwyNC44MDMxMTI4IEM1Ni44Nzc4MjEsLTEyLjI1MjE0MDEgLTEuMTk1MzMwNzQsLTEuOTkyMjE3OSAxLjE5NTMzMDc0LDM1Ljk1OTUzMzEiLz4mI3hhOwkJCTxwYXRoIGZpbGw9IiMwMDAwMDAiIGQ9Ik02Ni40NDA0NjY5LDI0LjYwMzg5MTEgQzU3LjU3NTA5NzMsLTEzLjU0NzA4MTcgLTIuMTkxNDM5NjksLTMuMDg3OTM3NzQgMC4xOTkyMjE3OSwzNi4wNTkxNDQgTDAuMTk5MjIxNzksMzYuMTU4NzU0OSBDMy40ODYzODEzMiw1NS40ODMyNjg1IDIwLjcxOTA2NjEsNjUuMzQ0NzQ3MSAzOS43NDQ3NDcxLDYyLjE1NzE5ODQgQzQ4LjQxMDg5NDksNjAuNjYzMDM1IDU2LjE4MDU0NDcsNTYuNDc5Mzc3NCA2MS4yNjA3MDA0LDUwLjMwMzUwMTkgQzY2LjgzODkxMDUsNDMuNDMwMzUwMiA2OC44MzExMjg0LDM0LjU2NDk4MDUgNjYuNDQwNDY2OSwyNC42MDM4OTExIEw2Ni40NDA0NjY5LDI0LjYwMzg5MTEgWiBNNTkuNzY2NTM3LDQ5LjEwODE3MTIgQzU0Ljk4NTIxNCw1NC44ODU2MDMxIDQ3LjcxMzYxODcsNTguODcwMDM4OSAzOS40NDU5MTQ0LDYwLjI2NDU5MTQgQzIxLjQxNjM0MjQsNjMuMjUyOTE4MyA1LjI3OTM3NzQzLDUzLjk4OTEwNTEgMi4wOTE4Mjg3OSwzNS44NTk5MjIyIEMtMC4wOTk2MTA4OTQ5LC0wLjk5NjEwODk0OSA1Ni4yODAxNTU2LC0xMC44NTc1ODc1IDY0LjY0NzQ3MDgsMjUuMDAyMzM0NiBDNjYuODM4OTEwNSwzNC40NjUzNjk2IDY1LjA0NTkxNDQsNDIuNzMzMDczOSA1OS43NjY1MzcsNDkuMTA4MTcxMiBMNTkuNzY2NTM3LDQ5LjEwODE3MTIgWiIvPiYjeGE7CQkJPGVsbGlwc2Ugcnk9IjEwLjQ1OTE0NCIgcng9IjkuNDYzMDM1MDIiIGN5PSIzNC4xNjY1MzciIGN4PSIxNy42MzExMjg0IiBmaWxsPSIjMDAwMDAwIi8+JiN4YTsJCQk8ZWxsaXBzZSByeT0iMi42ODk0OTQxNiIgcng9IjIuMTkxNDM5NjkiIGN5PSIzNi41NTcxOTg0IiBjeD0iMjIuMDE0MDA3OCIgZmlsbD0iI0ZGRkZGRiIvPiYjeGE7CQk8L2c+JiN4YTsJCTxnIHRyYW5zZm9ybT0idHJhbnNsYXRlKDk5LjUzNjM3NSwgNzAuNDUxMDcyKSI+JiN4YTsJCQk8cGF0aCBmaWxsPSIjRjZEMkEyIiBkPSJNMTMuMjQ4MjQ5LDEyLjU1MDk3MjggQzUuMzc4OTg4MzMsMTMuMjQ4MjQ5IC0wLjk5NjEwODk0OSwyMi41MTIwNjIzIDMuMDg3OTM3NzQsMjkuODgzMjY4NSBDOC40NjY5MjYwNywzOS42NDUxMzYyIDIwLjUxOTg0NDQsMjguOTg2NzcwNCAyNy45OTA2NjE1LDI5Ljk4Mjg3OTQgQzM2LjY1NjgwOTMsMzAuMTgyMTAxMiA0My43MjkxODI5LDM5LjE0NzA4MTcgNTAuNjAyMzM0NiwzMS41NzY2NTM3IEM1OC4yNzIzNzM1LDIzLjIwOTMzODUgNDcuMzE1MTc1MSwxNS4wNDEyNDUxIDM4LjY0OTAyNzIsMTEuNDU1MjUyOSBMMTMuMjQ4MjQ5LDEyLjU1MDk3MjggTDEzLjI0ODI0OSwxMi41NTA5NzI4IFoiLz4mI3hhOwkJCTxwYXRoIGZpbGw9IiMyMzFGMjAiIGQ9Ik01MS41OTg0NDM2LDE5LjIyNDkwMjcgQzQ4LjkwODk0OTQsMTUuODM4MTMyMyA0NC4yMjcyMzc0LDEyLjc1MDE5NDYgMzkuMTQ3MDgxNywxMC42NTgzNjU4IEwzOC45NDc4NTk5LDEwLjU1ODc1NDkgTDM4Ljc0ODYzODEsMTAuNTU4NzU0OSBMMTMuMjQ4MjQ5LDExLjU1NDg2MzggQzQuMzgyODc5MzgsMTIuMzUxNzUxIC0xLjk5MjIxNzksMjIuNjExNjczMiAyLjI5MTA1MDU4LDMwLjM4MTMyMyBDMy45ODQ0MzU4LDMzLjM2OTY0OTggNi4yNzU0ODYzOCwzNC44NjM4MTMyIDkuMzYzNDI0MTIsMzUuMDYzMDM1IEMxMS42NTQ0NzQ3LDM1LjE2MjY0NTkgMTQuMDQ1MTM2MiwzNC42NjQ1OTE0IDE3LjczMDczOTMsMzMuMzY5NjQ5OCBDMTguMDI5NTcyLDMzLjI3MDAzODkgMTguNDI4MDE1NiwzMy4xNzA0MjggMTguOTI2MDcsMzIuOTcxMjA2MiBDMjMuOTA2NjE0OCwzMS4yNzc4MjEgMjUuODk4ODMyNywzMC43Nzk3NjY1IDI3Ljg5MTA1MDYsMzEuMDc4NTk5MiBMMjcuOTkwNjYxNSwzMS4wNzg1OTkyIEMzMC4zODEzMjMsMzEuMDc4NTk5MiAzMi4zNzM1NDA5LDMxLjc3NTg3NTUgMzYuMTU4NzU0OSwzMy4yNzAwMzg5IEM0MC4zNDI0MTI1LDM0Ljk2MzQyNDEgNDEuNjM3MzU0MSwzNS40NjE0Nzg2IDQzLjcyOTE4MjksMzUuNjYwNzAwNCBDNDYuNjE3ODk4OCwzNS44NTk5MjIyIDQ5LjEwODE3MTIsMzQuODYzODEzMiA1MS4zOTkyMjE4LDMyLjM3MzU0MDkgQzU1LjI4NDA0NjcsMjguMDkwMjcyNCA1NS4wODQ4MjQ5LDIzLjUwODE3MTIgNTEuNTk4NDQzNiwxOS4yMjQ5MDI3IEw1MS41OTg0NDM2LDE5LjIyNDkwMjcgWiBNNDkuOTA1MDU4NCwzMC45Nzg5ODgzIEM0OC4wMTI0NTE0LDMzLjA3MDgxNzEgNDYuMTE5ODQ0NCwzMy43NjgwOTM0IDQzLjgyODc5MzgsMzMuNjY4NDgyNSBDNDIuMDM1Nzk3NywzMy41Njg4NzE2IDQwLjg0MDQ2NjksMzMuMDcwODE3MSAzNi44NTYwMzExLDMxLjQ3NzA0MjggQzMyLjg3MTU5NTMsMjkuNzgzNjU3NiAzMC42ODAxNTU2LDI5LjE4NTk5MjIgMjguMDkwMjcyNCwyOS4wODYzODEzIEMyNS42LDI4Ljc4NzU0ODYgMjMuNTA4MTcxMiwyOS4yODU2MDMxIDE4LjIyODc5MzgsMzEuMDc4NTk5MiBDMTcuNzMwNzM5MywzMS4yNzc4MjEgMTcuMzMyMjk1NywzMS4zNzc0MzE5IDE3LjAzMzQ2MywzMS40NzcwNDI4IEM5Ljc2MTg2NzcsMzMuOTY3MzE1MiA2LjI3NTQ4NjM4LDMzLjc2ODA5MzQgMy44ODQ4MjQ5LDI5LjM4NTIxNCBDMC4yOTg4MzI2ODUsMjIuOTEwNTA1OCA1Ljc3NzQzMTkxLDE0LjE0NDc0NzEgMTMuMjQ4MjQ5LDEzLjQ0NzQ3MDggTDM4LjQ0OTgwNTQsMTIuNDUxMzYxOSBDNDMuMjMxMTI4NCwxNC40NDM1Nzk4IDQ3LjUxNDM5NjksMTcuMzMyMjk1NyA1MC4wMDQ2NjkzLDIwLjQyMDIzMzUgQzUyLjk5Mjk5NjEsMjQuMDA2MjI1NyA1My4wOTI2MDcsMjcuNTkyMjE3OSA0OS45MDUwNTg0LDMwLjk3ODk4ODMgTDQ5LjkwNTA1ODQsMzAuOTc4OTg4MyBaIi8+JiN4YTsJCQk8ZyBmaWxsPSIjMDAwMDAwIiB0cmFuc2Zvcm09InRyYW5zbGF0ZSgxMS45NTMzMDcsIDAuMDAwMDAwKSI+JiN4YTsJCQkJPHBhdGggZD0iTTI4LjY4NzkzNzcsOC4yNjc3MDQyOCBDMjUuNiwtMy4wODc5Mzc3NCAtMC4yOTg4MzI2ODUsLTEuMzk0NTUyNTMgMC4yOTg4MzI2ODUsMTIuMTUyNTI5MiBDMS41OTM3NzQzMiwyMi4yMTMyMjk2IDMxLjY3NjI2NDYsMTkuNTIzNzM1NCAyOC42ODc5Mzc3LDguMjY3NzA0MjggTDI4LjY4NzkzNzcsOC4yNjc3MDQyOCBaIi8+JiN4YTsJCQk8L2c+JiN4YTsJCTwvZz4mI3hhOwk8L2c+JiN4YTs8L3N2Zz4=;fontFamily=Nunito;fontSource=https%3A%2F%2Ffonts.googleapis.com%2Fcss%3Ffamily%3DNunito;fontSize=15;fontStyle=1;sketch=1;curveFitting=1;jiggle=2;" vertex="1" parent="1">
          <mxGeometry x="365" y="209.99999999999994" width="38.2" height="52" as="geometry" />
        </mxCell>
        <mxCell id="W3zzGVwEkPr-ZKDZrl1E-11" value="Hello Pulsar" style="text;html=1;align=center;verticalAlign=middle;resizable=0;points=[];autosize=1;strokeColor=none;fontFamily=Nunito;fontSource=https%3A%2F%2Ffonts.googleapis.com%2Fcss%3Ffamily%3DNunito;fontSize=20;fontStyle=1;spacing=0;labelBackgroundColor=none;fillColor=default;sketch=1;curveFitting=1;jiggle=2;" vertex="1" parent="1">
          <mxGeometry x="32" y="55" width="130" height="30" as="geometry" />
        </mxCell>
        <mxCell id="W3zzGVwEkPr-ZKDZrl1E-20" value="&lt;h1 style=&quot;border-color: var(--border-color); color: rgb(0, 0, 0); font-family: &amp;quot;Architects Daughter&amp;quot;; font-style: normal; font-variant-ligatures: normal; font-variant-caps: normal; letter-spacing: normal; orphans: 2; text-align: left; text-indent: 0px; text-transform: none; widows: 2; word-spacing: 0px; -webkit-text-stroke-width: 0px; background-color: rgb(251, 251, 251); text-decoration-thickness: initial; text-decoration-style: initial; text-decoration-color: initial; font-size: 17px;&quot;&gt;Hello-{lan}-{i}&lt;/h1&gt;" style="text;whiteSpace=wrap;html=1;fontSize=20;fontFamily=Architects Daughter;" vertex="1" parent="1">
          <mxGeometry x="270" y="350" width="100" height="50" as="geometry" />
        </mxCell>
      </root>
    </mxGraphModel>
  </diagram>
</mxfile>
